<svg
   version="1.0"
   width="484px"
   height="361px"
   viewBox="0 0 484 361"
   xmlns="http://www.w3.org/2000/svg">
  <g
     fill="#92b0d6"
     id="g69"
     transform="translate(-0.19130896,-0.19130896)">
    <path
       d="m 129.55,351.7 c -8.1,-2.2 -14.8,-9.6 -15.85,-17.55 -0.3,-2.45 -0.25,-2.65 0.65,-2.65 0.8,0 1.05,0.45 1.3,2.2 0.35,2.4 2.7,7.8 3.75,8.45 0.3,0.2 0.6,1.2 0.6,2.1 0,1.65 0.1,1.75 1.75,1.75 0.9,0 1.9,0.3 2.1,0.65 0.2,0.35 1.85,1.3 3.65,2.1 l 3.25,1.5 16.4,0.15 c 15.8,0.15 16.35,0.2 16.35,1.15 0,0.9 -0.45,0.95 -15.6,0.9 -12,0 -16.3,-0.2 -18.35,-0.75 z"
       id="path16" />
    <path
       d="m 237,351.5 c 0,-1 0.35,-1 21.75,-1 21.4,0 21.75,0 21.75,1 0,1 -0.35,1 -21.75,1 -21.4,0 -21.75,0 -21.75,-1 z"
       id="path17" />
    <path
       d="m 281,351.5 c 0,-0.8 0.35,-1 1.75,-1 1.4,0 1.75,0.2 1.75,1 0,0.8 -0.35,1 -1.75,1 -1.4,0 -1.75,-0.2 -1.75,-1 z"
       id="path18" />
    <path
       d="m 287,351.5 c 0,-0.85 0.35,-1 2.25,-1 1.9,0 2.25,0.15 2.25,1 0,0.85 -0.35,1 -2.25,1 -1.9,0 -2.25,-0.15 -2.25,-1 z"
       id="path19" />
    <path
       d="m 349,351.5 c 0,-0.8 0.35,-1 1.75,-1 1.4,0 1.75,0.2 1.75,1 0,0.8 -0.35,1 -1.75,1 -1.4,0 -1.75,-0.2 -1.75,-1 z"
       id="path20" />
    <path
       d="m 355,351.5 c 0,-0.95 0.35,-1 5.75,-1 5.4,0 5.75,0.05 5.75,1 0,0.95 -0.35,1 -5.75,1 -5.4,0 -5.75,-0.05 -5.75,-1 z"
       id="path21" />
    <path
       d="m 367,351.6 c 0,-0.9 0.4,-1 5.65,-1.2 4.9,-0.15 6,-0.35 8.85,-1.65 1.8,-0.8 3.35,-1.65 3.4,-1.85 0.1,-0.2 1,-0.4 1.95,-0.4 1.8,0 1.8,0 0.85,1.05 -0.5,0.55 -2.6,1.85 -4.7,2.85 -3.55,1.7 -4.05,1.8 -9.85,2 -5.9,0.2 -6.15,0.2 -6.15,-0.8 z"
       id="path22" />
    <path
       d="m 389.5,343.8 c 0,-1.45 0.2,-1.95 1,-2.15 0.55,-0.15 1,-0.65 1,-1.1 0,-0.45 0.45,-2 1,-3.45 0.55,-1.45 1,-3.05 1,-3.6 0,-0.65 0.35,-1 1,-1 1.25,0 1.25,0.9 0.2,4.55 -0.9,3.05 -2.7,6.35 -4.2,7.7 -1,0.9 -1,0.85 -1,-0.95 z"
       id="path23" />
    <path
       d="m 127.55,343.7 c -3.2,-1.6 -5.8,-4.9 -6.55,-8.35 -0.3,-1.4 -0.5,-9 -0.5,-17.85 V 302 h 2 c 2.15,0 2.85,1.15 0.95,1.65 -1,0.25 -1,0.5 -0.85,15.7 l 0.15,15.4 1.4,2.35 c 1.75,3 3.85,4.6 7.5,5.7 3.45,1.1 3.8,2.2 0.7,2.2 -1.3,0 -3.15,-0.5 -4.8,-1.3 z"
       id="path24" />
    <path
       d="m 374.5,344.3 c 0,-0.4 0.7,-0.85 1.5,-1.05 1.1,-0.25 1.5,-0.65 1.55,-1.4 0,-0.6 0.1,-9.05 0.25,-18.75 0.2,-17.8 0.05,-19.6 -1.55,-19.6 -0.4,0 -0.75,-0.35 -0.75,-0.75 0,-0.65 1.05,-0.75 6.55,-0.75 h 6.5 l -0.15,16.9 c -0.15,15.5 -0.25,17 -1.1,18.8 -1.35,2.7 -4,5.2 -6.65,6.35 -2.7,1.15 -6.15,1.3 -6.15,0.25 z"
       id="path25" />
    <path
       d="M 244.5,326.25 C 231.05,324 219.65,318.1 209.8,308.4 c -2.7,-2.7 -5.1,-4.9 -5.35,-4.9 -0.25,0 -0.45,-0.35 -0.45,-0.75 0,-0.5 0.55,-0.75 1.75,-0.75 0.95,0 1.75,0.2 1.75,0.45 0,0.25 1.6,2 3.5,3.85 1.95,1.85 3.5,3.65 3.5,4.05 0,0.35 0.45,0.65 1,0.65 0.55,0 1.25,0.45 1.6,1 0.35,0.55 0.85,1 1.05,1 0.4,0 4.85,2.9 5.35,3.5 0.5,0.6 10.35,4.9 13.5,5.9 4.1,1.3 10.4,2.6 12.75,2.6 1.4,0 1.75,0.2 1.75,1 0,1.2 -1.25,1.25 -7,0.25 z"
       id="path26" />
    <path
       d="m 258,326.15 c 0,-0.8 0.65,-1 4.4,-1.55 2.45,-0.3 6,-1.05 7.9,-1.65 4.6,-1.4 12.3,-4.5 13.1,-5.25 0.3,-0.35 1.1,-0.8 1.7,-1 0.6,-0.15 1.5,-0.7 2,-1.2 0.5,-0.45 1.55,-1.15 2.3,-1.55 0.75,-0.4 1.65,-1.1 2,-1.55 0.35,-0.5 0.85,-0.9 1.1,-0.9 0.2,0 2.5,-2.15 5.05,-4.75 4,-4.1 4.85,-4.75 6.3,-4.75 1.15,0 1.65,0.25 1.65,0.75 0,0.4 -0.3,0.75 -0.65,0.75 -0.35,0 -2.3,1.7 -4.35,3.8 -6.95,7 -13.6,11.6 -21.8,15 -4.7,1.95 -12.5,3.95 -17.4,4.45 -3.05,0.35 -3.3,0.3 -3.3,-0.6 z"
       id="path27" />
    <path
       d="m 174,302.5 c 0,-0.85 0.35,-1 2,-1 1.65,0 2,0.15 2,1 0,0.85 -0.35,1 -2,1 -1.65,0 -2,-0.15 -2,-1 z"
       id="path28" />
    <path
       d="m 120.5,286.25 c 0,-10.9 -0.05,-10.75 3.7,-10.75 2.3,0 2.4,1.2 0.2,1.8 l -1.65,0.5 -0.15,8.35 c -0.1,7.2 0,8.35 0.65,8.35 0.4,0 0.75,0.35 0.75,0.75 0,0.5 -0.55,0.75 -1.75,0.75 h -1.75 z"
       id="path29" />
    <path
       d="m 250.5,281.6 c -1.85,-1.5 -2.05,-8.1 -0.25,-8.1 0.4,0 0.75,-0.35 0.75,-0.75 0,-0.5 0.55,-0.75 1.75,-0.75 2.05,0 2.45,1.2 0.5,1.7 -2.85,0.7 -3.2,4.8 -0.6,6.55 3.75,2.45 7.3,-3 3.85,-5.9 -0.8,-0.7 -1.5,-1.45 -1.5,-1.6 0,-0.15 0.85,-0.25 1.9,-0.15 1.5,0.1 1.9,0.35 2,1.3 0.1,0.6 0.4,1.1 0.65,1.1 0.5,0 0.6,2.65 0.15,4.4 -0.2,0.75 -0.7,1.1 -1.5,1.1 -0.85,0 -1.2,0.3 -1.2,1 0,0.9 -0.35,1 -2.7,1 -1.85,0 -3.05,-0.3 -3.8,-0.9 z"
       id="path30" />
    <path
       d="m 113.5,278.35 c 0,-0.35 -1.3,-1.2 -2.85,-1.85 -3.05,-1.25 -6.5,-3.4 -7.6,-4.7 -0.6,-0.7 -0.45,-0.8 1.15,-0.8 1.15,0 1.95,0.25 2.1,0.75 0.2,0.4 0.6,0.75 1,0.75 0.4,0 0.7,0.25 0.7,0.5 0,0.3 0.35,0.5 0.75,0.5 0.4,0 0.75,0.35 0.75,0.75 0,0.5 0.5,0.75 1.4,0.75 2.85,0 3.6,0.5 3.6,2.3 0,0.95 -0.2,1.7 -0.5,1.7 -0.25,0 -0.5,-0.3 -0.5,-0.65 z"
       id="path31" />
    <path
       d="m 394,273.25 c 0,-1.65 0.1,-1.75 2,-2.05 1.1,-0.2 2,-0.5 2,-0.75 0,-0.2 0.8,-0.65 1.75,-1 0.95,-0.35 1.75,-0.85 1.75,-1.05 0,-0.2 0.4,-0.4 0.95,-0.4 0.5,0 1.05,-0.45 1.2,-1 0.2,-0.75 0.7,-1 2.05,-1 1.7,0 1.8,-0.05 1.8,-1.75 0,-1.2 0.25,-1.75 0.75,-1.75 0.4,0 0.75,-0.45 0.75,-1 0,-0.55 0.3,-1.15 0.7,-1.3 0.4,-0.15 0.85,-0.8 1,-1.5 0.2,-0.65 0.65,-1.2 1.05,-1.2 0.4,0 0.75,-0.4 0.75,-0.95 0,-0.5 0.55,-2.45 1.25,-4.3 2.8,-7.4 3.45,-15.25 1.95,-22.65 -0.8,-3.9 -3.85,-11.8 -5.05,-13 -0.35,-0.35 -0.65,-0.95 -0.65,-1.35 0,-0.35 -0.35,-0.75 -0.75,-0.95 -0.45,-0.15 -0.75,-0.9 -0.75,-1.75 0,-1.25 -0.2,-1.5 -1.35,-1.65 -1.1,-0.1 -1.45,-0.45 -1.55,-1.5 -0.15,-1.2 -0.4,-1.4 -1.65,-1.4 -0.8,0 -1.45,-0.2 -1.45,-0.5 0,-0.25 -0.35,-0.5 -0.75,-0.5 -0.4,0 -0.75,-0.35 -0.75,-0.75 0,-0.4 -0.35,-0.75 -0.8,-0.75 -0.45,0 -1.9,-0.4 -3.25,-0.85 -2.25,-0.8 -2.45,-1 -2.45,-2.5 0,-0.9 0.25,-1.65 0.5,-1.65 0.3,0 0.5,0.3 0.5,0.7 0,0.4 0.85,1 1.9,1.3 6.7,2.2 13.85,9.25 17.4,17.3 2.55,5.75 3.4,10.4 3.35,18.2 0,6.4 -0.15,7.75 -1.35,11.7 -0.75,2.45 -2.05,5.95 -2.95,7.7 -3.25,6.55 -9.85,12.9 -15.4,14.9 -1.5,0.55 -2.7,1.3 -2.85,1.85 -0.4,1.6 -1.6,0.95 -1.6,-0.9 z"
       id="path32" />
    <path
       d="m 99.35,267.9 c -3.75,-4.65 -7.05,-12.6 -8.1,-19.55 -0.35,-2.15 -0.3,-2.35 0.7,-2.35 0.75,0 1.05,0.3 1.05,1.2 0,1.8 2.35,9.55 3.75,12.3 0.7,1.35 1.25,2.9 1.25,3.5 0,0.55 0.35,1 0.75,1 0.4,0 0.75,0.4 0.75,0.95 0,0.5 0.45,1.05 1,1.2 0.75,0.2 1,0.7 1,2.05 0,1 -0.1,1.8 -0.2,1.8 -0.15,0 -1,-0.95 -1.95,-2.1 z"
       id="path33" />
    <path
       d="m 251.15,259.45 c -1.15,-0.35 -1.65,-0.8 -1.65,-1.45 0,-0.65 -0.35,-1 -0.95,-1 -1.05,0 -1.55,-0.95 -1.55,-3.05 0,-2.05 1.15,-1.85 1.95,0.35 1.2,3.25 5.45,4.7 8.55,2.85 1.8,-1.05 3.25,-4.1 2.8,-5.95 -1.5,-5.9 -8.5,-6.75 -11.05,-1.35 -1.2,2.5 -2.25,2.8 -2.25,0.65 0,-2.15 1.25,-4.35 3,-5.25 1.45,-0.75 6.65,-1.05 8.2,-0.45 0.45,0.15 0.8,0.75 0.8,1.25 0,0.6 0.35,0.95 1,0.95 1.35,0 2,1.8 2,5.3 0,4 -1.45,6.35 -4.55,7.2 -2.05,0.6 -4.15,0.55 -6.3,-0.05 z"
       id="path34" />
    <path
       d="m 376,258.75 c 0,-0.4 -0.2,-0.75 -0.5,-0.75 -0.25,0 -0.5,-0.8 -0.5,-1.75 0,-2.25 0.6,-2.2 2.05,0.15 0.65,1 1.35,2.15 1.6,2.5 0.3,0.45 0,0.6 -1.15,0.6 -1,0 -1.5,-0.25 -1.5,-0.75 z"
       id="path35" />
    <path
       d="m 371.5,249.45 c -1.55,-5.7 -1.9,-12.35 -1,-18.7 0.85,-5.7 1.45,-7.25 2.9,-7.25 0.95,0 1.15,0.2 0.85,0.9 -1.55,3.5 -1.9,6.25 -1.9,13.1 0,5.8 0.2,7.95 1,10.65 l 1,3.35 h -1.15 c -0.95,0 -1.25,-0.4 -1.7,-2.05 z"
       id="path36" />
    <path
       d="m 98,246.25 c 0,-2.45 1.15,-3.2 1.7,-1.1 0.6,2.2 0.35,3.35 -0.7,3.35 -0.85,0 -1,-0.35 -1,-2.25 z"
       id="path37" />
    <path
       d="m 98,238.4 c 0,-0.85 0.25,-3 0.55,-4.75 0.45,-2.55 0.75,-3.15 1.5,-3.15 1.1,0 1.1,0.1 0.45,3.35 -0.25,1.3 -0.6,3.25 -0.75,4.3 -0.35,2.35 -1.75,2.6 -1.75,0.25 z"
       id="path38" />
    <path
       d="m 144,235.5 v -4 h 28.25 28.25 v 2.2 c 0,3.1 -0.35,3.8 -2.05,3.8 H 197 l 1,-2 1,-2 h -26.8 -26.8 l 0.3,1.15 c 0.15,0.6 0.3,1.7 0.3,2.5 0,0.85 0.25,1.35 0.75,1.35 0.4,0 0.75,0.25 0.75,0.5 0,0.3 -0.8,0.5 -1.75,0.5 H 144 Z"
       id="path39" />
    <path
       d="M 91.25,235.65 C 92,230.15 94.4,223 95.5,223 c 0.55,0 0.7,3.35 0.1,3.6 -0.45,0.2 -2.6,8.4 -2.6,10.1 0,1 -0.25,1.3 -1.05,1.3 -1,0 -1.05,-0.2 -0.7,-2.35 z"
       id="path40" />
    <path
       d="m 309,236.55 c -0.3,-0.8 -0.5,-2.2 -0.4,-3.1 l 0.15,-1.7 27.7,-0.15 c 21.85,-0.1 27.8,0 28.15,0.5 0.2,0.35 0.4,1.6 0.4,2.8 0,1.75 -0.15,2.1 -1,2.1 -0.8,0 -1,-0.35 -1,-1.75 v -1.75 h -26.25 c -20.65,0 -26.25,0.15 -26.25,0.65 0,0.3 0.45,1.35 1,2.25 l 1,1.6 h -1.45 c -1.1,0 -1.55,-0.35 -2.05,-1.45 z"
       id="path41" />
    <path
       d="m 100.5,228 c 0,-0.8 0.5,-2.5 1.1,-3.75 0.9,-1.85 1.35,-2.25 2.45,-2.25 h 1.3 l -1.95,3.75 c -2.1,4 -2.9,4.65 -2.9,2.25 z"
       id="path42" />
    <path
       d="m 140.25,224.2 c -0.4,-1 -1.75,-3.25 -3,-5 C 136,217.4 135,215.5 135,215 c 0,-0.7 -0.35,-1 -1.1,-1 -0.65,0 -1.95,-0.75 -2.95,-1.65 -1.6,-1.5 -6.15,-3.75 -9.3,-4.6 -1.1,-0.3 -1.15,-0.5 -1.15,-7 0,-5.6 0.2,-7.2 1.05,-9.5 1.2,-3.25 3.7,-6 6.75,-7.35 2.1,-0.9 5.4,-0.95 126.3,-0.9 h 124.15 l 2.65,1.3 c 5.1,2.5 7.35,7.25 7,14.9 l -0.15,3.9 -3.15,1.15 c -1.7,0.6 -4.05,1.8 -5.2,2.55 -1.1,0.8 -2.4,1.65 -2.85,1.9 -2.2,1.2 -7.45,9.05 -9.35,13.95 -1.25,3.25 -1.35,3.35 -3,3.35 -1.85,0 -2.45,-1.2 -0.8,-1.6 0.5,-0.15 1.15,-1.1 1.5,-2.25 1.55,-5.15 6.2,-11.85 10.85,-15.65 1.5,-1.25 2.5,-2.35 2.25,-2.4 -0.3,-0.1 -0.5,-1.55 -0.5,-3.25 0,-3.65 -0.7,-5.2 -2.8,-6.45 -1.45,-0.85 -7.25,-0.9 -126.3,-1 -105.15,-0.15 -124.9,-0.05 -125.55,0.55 -0.7,0.55 -0.85,1.65 -0.85,6.25 v 5.6 l 2.75,0.9 c 1.5,0.45 4.2,1.85 6,3.05 1.8,1.2 3.25,1.9 3.3,1.6 0,-0.35 0,-2.3 -0.05,-4.4 -0.05,-4.45 0.35,-6.45 1.3,-6.45 0.55,0 0.7,1.2 0.7,6 v 6 H 156.25 176 v -8.3 -8.25 l -20.5,0.15 c -20.3,0.15 -20.55,0.15 -20.4,-0.85 0.15,-1 0.55,-1 21.4,-1 h 21.25 v 10 10 l -20.35,0.15 -20.4,0.1 1.7,2.4 c 0.95,1.3 2.3,3.55 3.05,5 0.7,1.4 1.65,2.6 2.05,2.6 0.35,0 0.7,0.35 0.7,0.75 0,0.5 -0.55,0.75 -1.75,0.75 -1.5,0 -1.85,-0.2 -2.5,-1.8 z m 27.25,-33.4 c 0,-0.35 -0.35,-0.95 -0.75,-1.3 -0.4,-0.35 -0.75,-1.25 -0.75,-2.05 0,-0.75 -0.25,-1.55 -0.5,-1.7 -1.05,-0.65 -5.85,-0.9 -6.2,-0.3 -0.55,0.8 1.15,3.25 3.2,4.75 1.95,1.35 5,1.75 5,0.6 z"
       id="path43" />
    <path
       d="m 203.5,225.25 c 0,-0.4 0.3,-0.75 0.65,-0.75 0.35,0 2.2,-1.6 4.1,-3.55 10.95,-11.2 24.5,-18.1 38.65,-19.7 2.85,-0.3 3.1,-0.25 3.1,0.65 0,0.8 -0.45,1 -2.85,1.25 -5.75,0.6 -19.6,5.25 -21.55,7.15 -0.3,0.35 -1.1,0.8 -1.7,1 -0.6,0.15 -1.5,0.7 -2,1.2 -0.5,0.45 -1.55,1.15 -2.3,1.55 -0.75,0.4 -1.65,1.1 -2,1.6 -0.35,0.45 -0.9,0.85 -1.15,0.85 -0.25,0 -1.15,0.8 -2,1.75 -1.1,1.25 -1.95,1.75 -3,1.75 -1.25,0 -1.45,0.2 -1.45,1.4 0,2 -2.8,4.6 -4.9,4.6 -1.1,0 -1.6,-0.25 -1.6,-0.75 z"
       id="path44" />
    <path
       d="m 301.35,225.1 c -0.5,-0.5 -0.85,-1.05 -0.85,-1.25 0,-0.45 -4.4,-4.5 -8.1,-7.45 -1.75,-1.4 -3.2,-2.7 -3.3,-2.95 -0.1,-0.25 -0.4,-0.45 -0.65,-0.45 -0.65,0 -8.65,-4.65 -8.85,-5.1 -0.1,-0.25 -0.55,-0.4 -0.95,-0.4 -0.45,0 -2.4,-0.6 -4.35,-1.3 -4.1,-1.5 -11.3,-3.15 -13.65,-3.2 -1.3,0 -1.65,-0.2 -1.65,-1 0,-1.2 0.5,-1.25 6.15,-0.25 13.15,2.3 25.35,8.65 34.7,18.1 2.5,2.55 4.8,4.65 5.1,4.65 0.3,0 0.55,0.35 0.55,0.75 0,1.1 -3.15,1 -4.15,-0.15 z"
       id="path45" />
    <path
       d="m 374,220.75 c 0,-1.55 0.15,-1.75 1.25,-1.75 1.45,0 1.5,0.1 0.5,2 -1.05,2 -1.75,1.9 -1.75,-0.25 z"
       id="path46" />
    <path
       d="m 96,221.05 c 0,-0.25 1.2,-2.1 2.65,-4.1 2.35,-3.3 8.05,-8.45 9.4,-8.45 0.25,0 0.45,0.55 0.45,1.25 0,0.8 -0.3,1.25 -0.75,1.25 -0.4,0 -0.75,0.25 -0.75,0.5 0,0.3 -0.45,0.5 -1,0.5 -0.55,0 -1,0.3 -1,0.65 0,0.75 -3.15,3.85 -3.95,3.85 -0.3,0 -0.55,0.45 -0.55,1 0,0.65 -0.35,1 -1,1 -0.8,0 -1,0.35 -1,1.5 0,1.25 -0.2,1.5 -1.25,1.5 -0.7,0 -1.25,-0.2 -1.25,-0.45 z"
       id="path47" />
    <path
       d="m 105.5,220.05 c 0,-1.75 1.3,-3.55 2.6,-3.55 0.5,0 0.9,-0.35 0.9,-0.75 0,-0.4 0.35,-0.75 0.8,-0.75 0.4,0 1.1,-0.35 1.5,-0.75 0.95,-0.9 4.2,-1 4.2,-0.1 0,0.3 -1.05,1 -2.3,1.55 -1.25,0.5 -3.5,2.05 -5,3.4 l -2.7,2.5 z"
       id="path48" />
    <path
       d="m 109,208.5 c 0,-0.3 1,-0.95 2.25,-1.5 1.25,-0.55 2.25,-1.3 2.25,-1.75 0,-0.4 0.35,-0.75 0.75,-0.75 0.5,0 0.75,0.5 0.75,1.7 0,1.45 -0.2,1.8 -1.55,2.25 -2,0.7 -4.45,0.7 -4.45,0.05 z"
       id="path49" />
    <path
       d="m 113.5,195.4 c 0.1,-6.9 5.35,-14.45 12.35,-17.8 3.6,-1.7 4.2,-1.8 9.75,-2 5.75,-0.2 6.5,-0.45 5.5,-1.85 -0.2,-0.3 -2.8,-0.5 -6.35,-0.5 -5.9,0 -6.05,-0.05 -9.9,-1.85 -2.25,-1.1 -5,-2.9 -6.55,-4.4 -5.9,-5.55 -8.6,-14.8 -6.6,-22.3 0.85,-3.2 3.5,-8.25 5.1,-9.75 l 1.2,-1.1 v 1.85 c 0,1.15 -0.25,1.95 -0.75,2.1 -0.4,0.2 -0.75,0.6 -0.75,0.95 0,0.4 -0.3,1 -0.65,1.35 -0.35,0.35 -1.2,2.3 -1.8,4.3 -2,6.1 -0.8,12.65 3.2,17.9 0.7,0.9 1.25,2 1.25,2.4 0,0.45 0.35,0.8 0.8,0.8 0.4,0 1.6,0.65 2.6,1.5 1,0.8 3.2,2.1 4.85,2.85 2.85,1.3 3.35,1.4 9.35,1.3 l 6.3,-0.1 0.6,1.45 c 0.3,0.75 0.5,2.15 0.4,3.05 l -0.15,1.7 -6.3,0.25 c -6.05,0.25 -6.4,0.3 -10.25,2.2 -2.15,1.1 -4.25,2.4 -4.6,2.9 -0.35,0.5 -1.1,0.9 -1.65,0.9 -0.6,0 -0.95,0.35 -0.95,1 0,0.55 -0.55,1.9 -1.2,2.9 -1.4,2.25 -2.8,6.15 -2.8,7.85 0,0.9 -0.25,1.25 -1,1.25 -0.7,0 -1,-0.35 -1,-1.1 z"
       id="path50" />
    <path
       d="m 393.5,194.45 c 0,-1.25 -2.5,-7.65 -3.1,-7.85 -0.2,-0.1 -0.4,-0.75 -0.4,-1.4 0,-0.85 -0.3,-1.2 -1,-1.2 -0.75,0 -1,-0.35 -1,-1.25 0,-1 -0.25,-1.25 -1.3,-1.25 -1.1,0 -3.95,-1.55 -4.7,-2.55 -0.15,-0.2 -1.9,-0.65 -3.85,-1 -3.05,-0.55 -3.65,-0.85 -3.65,-1.65 0,-0.85 0.25,-0.9 2.4,-0.65 7.85,0.95 15.25,7.1 17.6,14.7 1.3,4.15 1.3,5.15 0,5.15 -0.7,0 -1,-0.35 -1,-1.05 z"
       id="path51" />
    <path
       d="m 149.6,175.15 c -0.45,-1.05 -1,-2 -1.2,-2.15 -0.2,-0.15 -1.25,-2.25 -2.4,-4.65 -4.45,-9.65 -8.15,-23.55 -8.85,-33.3 -0.25,-4 -0.2,-4.55 0.5,-4.55 0.85,0 1.05,0.85 1.6,6.25 0.4,4.3 2.15,12.2 3.8,17.7 2.8,9 7.95,19.9 9.9,20.8 1.65,0.8 1.3,1.75 -0.7,1.75 -1.55,0 -1.85,-0.25 -2.65,-1.85 z"
       id="path52" />
    <path
       d="m 366.5,172.35 c 0,-5.7 -0.85,-8.5 -3.55,-11.5 -2.45,-2.85 -2.5,-3.8 -0.2,-12.15 1.9,-6.85 3.75,-17.05 3.75,-20.55 0,-1.8 0.15,-2.15 1,-2.15 0.8,0 1,0.35 1,1.75 0,5.05 -3.35,21.95 -5.45,27.45 -0.5,1.3 -0.4,1.6 1.25,3.4 2.95,3.3 3.85,5.9 4.1,11.8 0.15,3.9 0.35,5.1 0.9,5.1 0.4,0 0.7,0.35 0.7,0.75 0,0.5 -0.55,0.75 -1.75,0.75 h -1.75 z"
       id="path53" />
    <path
       d="m 385.05,133.5 c -2.15,-1.8 -4.65,-2.25 -7.4,-1.3 -1.9,0.65 -2.2,0.65 -2.9,0 -0.9,-0.9 -0.6,-1.6 1.6,-3.4 1.85,-1.55 2.85,-4.25 2.5,-6.65 -0.15,-0.95 -0.15,-2.05 0,-2.45 0.4,-1.05 2.35,-0.85 3.4,0.3 0.5,0.55 1.75,1.25 2.75,1.55 1,0.3 2,1 2.3,1.65 0.45,1.1 2.7,1.8 2.7,0.85 0,-0.3 -0.55,-0.55 -1.25,-0.55 -2.05,0 -1.45,-1.3 0.95,-2 1.25,-0.35 2.45,-0.45 2.75,-0.25 1,0.6 0.55,2.15 -0.9,3.2 -1.9,1.35 -3.3,4.95 -2.9,7.4 0.3,1.85 -0.25,3.15 -1.35,3.15 -0.3,-0.05 -1.3,-0.7 -2.25,-1.5 z"
       id="path54" />
    <path
       d="m 118.8,132.95 c 0.65,-1.1 6.15,-4.3 8.4,-4.95 l 2.3,-0.65 v -4.95 c 0,-13.9 3.5,-29.55 9.75,-43.4 4.65,-10.4 10.15,-19.15 17.7,-28.2 l 3.8,-4.55 0.15,1.65 c 0.2,1.9 -0.6,3.1 -1.95,3.1 -0.7,0 -0.95,0.35 -0.95,1.3 0,0.85 -0.3,1.4 -1,1.55 -0.55,0.15 -1,0.7 -1,1.25 0,0.55 -0.45,1.1 -1,1.25 -0.55,0.15 -1,0.7 -1,1.2 0,0.55 -0.2,0.95 -0.5,0.95 -0.25,0 -0.5,0.35 -0.5,0.75 0,0.4 -0.35,0.75 -0.75,0.75 -0.4,0 -0.75,0.45 -0.75,1 0,0.55 -0.2,1 -0.5,1 -0.25,0 -0.5,0.35 -0.5,0.75 0,0.4 -0.2,0.75 -0.5,0.75 -0.25,0 -0.5,0.35 -0.5,0.75 0,0.4 -0.2,0.75 -0.5,0.75 -0.25,0 -0.5,0.3 -0.5,0.7 0,0.4 -0.3,1.05 -0.7,1.4 -0.35,0.4 -0.85,1.2 -1,1.8 -0.2,0.6 -0.7,1.1 -1.1,1.1 -0.4,0 -0.7,0.45 -0.7,1 0,1.15 -2.9,7.15 -3.55,7.4 -0.25,0.1 -0.45,0.55 -0.45,1.05 0,0.45 -0.85,2.95 -1.95,5.55 -4.7,11.65 -7.5,25.5 -7.55,37.4 0,5.1 -0.1,6.1 -0.75,6.1 -0.4,0 -0.75,0.15 -0.75,0.4 0,0.2 -1.45,0.9 -3.25,1.55 -1.8,0.7 -3.25,1.45 -3.25,1.65 0,0.2 -0.35,0.4 -0.75,0.4 -0.4,0 -0.75,0.25 -0.75,0.5 0,0.3 -0.8,0.5 -1.8,0.5 -1.15,0 -1.65,-0.2 -1.4,-0.55 z"
       id="path55" />
    <path
       d="m 136.5,124 c 0,-5.65 0.05,-6 1,-6 0.95,0 1,0.35 1,6 0,5.65 -0.05,6 -1,6 -0.95,0 -1,-0.35 -1,-6 z"
       id="path56" />
    <path
       d="m 367,120.75 c 0,-1.65 0.15,-1.85 2.85,-3 1.55,-0.7 3.6,-1.85 4.45,-2.5 0.9,-0.7 1.75,-1.25 1.9,-1.25 0.45,0 2.8,-2.5 2.8,-3 0,-0.25 0.3,-0.65 0.65,-0.85 0.95,-0.6 3.3,-5.75 3.9,-8.7 0.8,-3.6 0.2,-7.55 -1.7,-11.7 -0.85,-1.9 -1.75,-3.55 -1.95,-3.65 -0.25,-0.1 -0.4,-1 -0.4,-1.95 0,-1.75 0.05,-1.75 0.95,-0.95 1.5,1.35 3.95,6.35 4.85,9.85 2.65,10.25 -3.15,21.5 -13.55,26.25 -1.65,0.75 -3,1.75 -3.1,2.25 -0.45,1.7 -1.65,1.1 -1.65,-0.8 z"
       id="path57" />
    <path
       d="m 137.15,113.15 c 0.5,-8.2 3.05,-18.55 6.95,-28.5 1.75,-4.6 2.1,-5.15 3.2,-5.15 1.2,0 1.2,0 0.4,1.9 -4.15,9.6 -6.65,18.15 -7.9,27.1 -0.5,3.15 -0.95,6.5 -1.1,7.4 -0.15,1.05 -0.55,1.6 -1.05,1.6 -0.7,0 -0.75,-0.6 -0.5,-4.35 z"
       id="path58" />
    <path
       d="m 106.5,115.2 c -1.5,-0.7 -5.35,-2.3 -8.5,-3.55 -12.5,-4.95 -15.5,-7.5 -15.5,-13.15 0,-1.95 1.85,-4.5 3.8,-5.3 2.35,-1 7.15,-0.95 11.4,0 1.85,0.45 3.55,0.8 3.8,0.8 0.25,0 0.7,-0.95 1.05,-2.1 2,-7.5 8,-11.55 13.6,-9.2 4.4,1.8 5.65,5.95 3.9,13.05 -0.6,2.45 -1.75,7.35 -2.55,10.85 -0.8,3.5 -1.7,6.8 -1.95,7.35 -1.5,2.8 -4.75,3.25 -9.05,1.25 z m 6.4,-1.8 c 1.3,-1.45 1.8,-2.8 2.6,-7.15 0.3,-1.9 1.25,-5.95 2.1,-8.9 1.45,-5.3 1.55,-6.35 0.65,-10.7 -0.3,-1.2 -0.7,-1.65 -1.9,-1.9 -2.5,-0.55 -6.55,-0.45 -6.75,0.2 -0.1,0.3 -0.75,0.55 -1.4,0.55 -0.85,0 -1.2,0.3 -1.2,0.95 0,0.5 -0.55,1.9 -1.2,3.1 -0.65,1.2 -1.5,3.2 -1.8,4.35 l -0.55,2.2 -2.35,-0.25 c -1.3,-0.1 -4.1,-0.6 -6.2,-1.1 -3.15,-0.75 -4.2,-0.8 -5.8,-0.35 -2.25,0.7 -3.95,2.2 -4.4,3.8 -0.3,1.3 1.7,6.25 2.55,6.3 0.3,0 2,0.75 3.75,1.7 1.8,0.95 5.2,2.45 7.65,3.35 2.45,0.9 4.35,1.9 4.35,2.3 0,0.4 0.65,0.65 1.65,0.7 0.85,0 2.5,0.45 3.6,0.95 2.65,1.25 3.4,1.2 4.65,-0.1 z"
       id="path59" />
    <path
       d="m 401.65,95.9 c -0.3,-0.35 -0.65,-1.25 -0.85,-2 -0.75,-3.1 -5.6,-6.85 -8.9,-6.9 -0.9,0 -1.45,-0.35 -1.65,-1 -0.45,-1.5 -0.05,-1.85 2.7,-2.2 3.85,-0.5 7.05,-3.3 8.55,-7.4 0.55,-1.6 2.35,-1.9 2.85,-0.5 1.1,3.35 2.45,5.35 4.55,6.65 1.25,0.8 2.85,1.45 3.5,1.45 2.55,0 4.3,2.4 2.3,3.2 -1.1,0.4 -1.1,0.4 -1.35,-0.55 -0.2,-0.75 -0.25,-0.75 -0.3,-0.1 -0.05,0.45 -0.85,1.05 -2.05,1.4 -2.8,0.85 -4.95,2.85 -6.3,5.9 -1.15,2.6 -2.1,3.25 -3.05,2.05 z M 396.5,85 c 0,-0.55 -0.2,-1 -0.5,-1 -0.25,0 -0.5,0.45 -0.5,1 0,0.55 0.25,1 0.5,1 0.3,0 0.5,-0.45 0.5,-1 z m 7.4,-5.85 c -0.5,-0.1 -0.9,-0.55 -0.9,-0.95 0,-0.4 -0.2,-0.7 -0.5,-0.7 -0.25,0 -0.5,0.45 -0.5,1 0,0.75 0.3,1 1.4,0.95 0.8,-0.05 1,-0.15 0.5,-0.3 z"
       id="path60" />
    <path
       d="M 374.65,80.85 C 374.45,80.5 373.3,79.8 372.15,79.3 370.5,78.55 370,78.05 370,77.2 c 0,-1.05 0.1,-1.15 1.4,-0.65 2.1,0.8 5.25,2.75 6.3,3.9 0.95,1.05 0.95,1.05 -0.85,1.05 -1,0 -2,-0.3 -2.2,-0.65 z"
       id="path61" />
    <path
       d="m 148,77.5 c 0,-1.45 1.65,-5.45 2.5,-6 0.2,-0.15 0.5,-0.75 0.7,-1.35 0.2,-0.65 0.7,-1.15 1.1,-1.15 0.4,0 0.7,-0.5 0.7,-1.25 0,-0.7 0.25,-1.25 0.5,-1.25 0.3,0 0.5,-0.35 0.5,-0.75 0,-0.45 0.45,-0.75 1.25,-0.75 1.1,0 1.25,-0.2 1.25,-1.75 0,-1.2 0.25,-1.75 0.75,-1.75 0.4,0 0.75,-0.45 0.75,-1 0,-0.55 0.35,-1 0.75,-1 0.45,0 0.75,-0.45 0.75,-1.05 0,-0.6 0.4,-1.15 0.95,-1.3 0.55,-0.15 1.05,-0.75 1.15,-1.35 0.1,-0.8 0.55,-1.1 1.8,-1.2 1.45,-0.15 1.6,-0.3 1.6,-1.75 0,-1.3 0.55,-2.2 2.9,-4.5 2.35,-2.35 3.2,-2.85 4.55,-2.85 h 1.7 l -5.45,5.65 c -6.75,6.9 -12.65,14.7 -16.75,22.15 -1.75,3.15 -3.3,5.7 -3.55,5.7 -0.2,0 -0.4,-0.7 -0.4,-1.5 z"
       id="path62" />
    <path
       d="m 365,76 c 0,-1.05 0.8,-1.25 2.9,-0.7 1.95,0.55 1.35,1.7 -0.9,1.7 -1.65,0 -2,-0.15 -2,-1 z"
       id="path63" />
    <path
       d="m 355.85,73.35 c -0.75,-1.7 -1.35,-3.5 -1.35,-3.95 0,-0.5 -0.3,-0.9 -0.7,-0.9 -0.35,0 -1,-0.75 -1.35,-1.6 -0.35,-0.9 -0.95,-1.95 -1.3,-2.3 -0.35,-0.35 -0.65,-1 -0.65,-1.4 0,-0.4 -0.2,-0.7 -0.5,-0.7 -0.25,0 -0.5,-0.35 -0.5,-0.75 0,-0.4 -0.2,-0.75 -0.5,-0.75 -0.25,0 -0.5,-0.35 -0.5,-0.75 0,-0.4 -0.2,-0.75 -0.5,-0.75 -0.25,0 -0.5,-0.45 -0.5,-1 0,-0.55 -0.35,-1 -0.75,-1 -0.4,0 -0.75,-0.3 -0.75,-0.7 0,-0.4 -0.35,-0.8 -0.75,-1 -0.4,-0.15 -0.75,-0.6 -0.75,-1 0,-0.35 -0.35,-0.8 -0.75,-1 C 343.35,53.65 343,52.95 343,52.25 343,51.4 342.75,51 342.1,51 c -1.35,0 -2.1,-1 -2.1,-2.85 0,-1.45 -0.15,-1.65 -1.4,-1.65 -1.05,0 -2.15,-0.8 -4.5,-3.15 -1.7,-1.7 -3.1,-3.5 -3.1,-4 0,-0.55 -0.4,-0.85 -1.15,-0.85 -1.25,0 -2.85,-1.4 -2.85,-2.4 0,-0.35 -0.45,-0.6 -1.05,-0.6 -0.6,0 -1.15,-0.4 -1.3,-1 -0.15,-0.55 -0.7,-1 -1.2,-1 -0.55,0 -1.1,-0.35 -1.25,-0.75 -0.2,-0.4 -0.6,-0.75 -1,-0.75 -0.4,0 -0.7,-0.2 -0.7,-0.5 0,-0.25 -0.35,-0.5 -0.75,-0.5 -0.45,0 -0.9,-0.35 -1.05,-0.75 -0.2,-0.4 -0.6,-0.75 -1,-0.75 -0.4,0 -0.7,-0.2 -0.7,-0.45 0,-0.25 -0.55,-0.6 -1.25,-0.75 -0.7,-0.2 -1.25,-0.55 -1.25,-0.8 0,-0.3 -0.35,-0.5 -0.75,-0.5 -0.4,0 -0.75,-0.2 -0.75,-0.45 0,-0.25 -0.55,-0.6 -1.25,-0.75 -0.7,-0.2 -1.25,-0.65 -1.25,-1.05 0,-0.4 -0.45,-0.75 -1,-0.75 -1.15,0 -10.15,-4.4 -10.4,-5.05 -0.1,-0.25 -0.55,-0.45 -1,-0.45 -1.15,0 -4.1,-1.15 -4.1,-1.6 0,-0.2 -0.4,-0.4 -0.9,-0.4 -0.5,0 -2.6,-0.55 -4.65,-1.25 -8,-2.8 -22.05,-5.75 -27.05,-5.75 -1.55,0 -1.9,-0.2 -1.9,-1 0,-1.2 0.2,-1.2 7.3,-0.3 21.9,2.9 43.65,12.2 60.55,25.85 4.65,3.75 12.8,11.9 16.75,16.7 4.05,5.05 9.75,13.75 12.65,19.4 1.35,2.65 2.75,4.85 3.1,4.85 0.35,0 0.65,0.35 0.65,0.75 0,0.5 -0.5,0.75 -1.6,0.75 -1.55,-0.05 -1.75,-0.25 -3.05,-3.15 z"
       id="path64" />
    <path
       d="M 374.8,67.2 C 374.35,66.8 374,65.8 374,65 c 0,-4.45 -4.15,-10.35 -8.55,-12.2 -4,-1.65 -4.5,-2 -4.35,-2.75 0.1,-0.45 1.85,-1.6 3.95,-2.6 5.05,-2.45 7.9,-6 8.7,-10.7 0.7,-4.3 0.7,-4.3 2.15,-4.15 1.2,0.15 1.4,0.4 1.7,2.8 0.5,3.5 2.35,7 4.9,9.3 1.9,1.7 2.85,2.25 6.65,3.75 1.05,0.4 1.4,0.85 1.25,1.7 -0.1,0.8 -0.8,1.35 -2.9,2.1 -5.2,1.85 -10,8.2 -10,13.25 0,1.9 -1.55,2.85 -2.7,1.7 z m 1.65,-7.05 c 0.05,-0.35 -0.3,-0.65 -0.75,-0.65 -0.55,0 -0.7,0.25 -0.5,0.8 0.15,0.45 0.3,1.15 0.35,1.6 0,0.7 0.1,0.65 0.45,-0.15 0.25,-0.55 0.45,-1.3 0.45,-1.6 z m 0,-20 c 0,-0.25 -0.2,-0.85 -0.4,-1.4 -0.35,-0.85 -0.4,-0.85 -0.65,0.4 -0.2,0.95 -0.05,1.35 0.4,1.35 0.4,0 0.7,-0.15 0.65,-0.35 z"
       id="path65" />
    <path
       d="m 174.5,43.65 c 0,-1.65 0.8,-2.65 2.05,-2.65 0.45,0 0.95,-0.45 1.1,-1 0.15,-0.6 0.7,-1 1.3,-1 0.6,0 1.05,-0.3 1.05,-0.75 0,-0.4 0.45,-0.75 1,-0.75 0.55,0 1,-0.35 1,-0.75 0,-0.4 0.25,-0.75 0.5,-0.75 0.3,0 0.95,-0.45 1.5,-1 0.55,-0.55 1.35,-1 1.75,-1 0.4,0 0.75,-0.2 0.75,-0.5 0,-0.25 0.7,-0.5 1.5,-0.5 1.15,0 1.5,-0.2 1.5,-1 0,-0.75 0.35,-1 1.25,-1 0.7,0 1.25,-0.3 1.25,-0.65 0,-0.9 2.15,-1.85 4,-1.85 2.15,0 1.85,0.65 -1,2.2 -3.85,2.1 -12.4,7.85 -15.75,10.6 -5.15,4.25 -4.75,4 -4.75,2.35 z"
       id="path66" />
    <path
       d="m 167.3,39.95 c 1.9,-2.1 10.05,-8.45 15.6,-12.1 6.45,-4.3 18.85,-10.6 25.25,-12.8 l 4.35,-1.5 v 1.1 c 0,0.95 -0.45,1.3 -2.65,2 -1.5,0.45 -3.05,0.85 -3.5,0.85 -0.5,0 -0.85,0.2 -0.85,0.4 0,0.55 -2.3,1.6 -3.5,1.6 -0.5,0 -1,0.2 -1.1,0.45 -0.3,0.8 -6.35,3.55 -7.9,3.55 -1.15,0 -1.5,0.2 -1.5,0.95 0,0.65 -0.55,1.2 -1.75,1.6 -0.95,0.35 -1.75,0.85 -1.75,1.05 0,0.2 -0.55,0.4 -1.25,0.4 -0.8,0 -1.25,0.3 -1.25,0.75 0,0.4 -0.35,0.75 -0.75,0.75 -0.4,0 -0.75,0.25 -0.75,0.5 0,0.3 -0.35,0.5 -0.75,0.5 -0.4,0 -0.75,0.25 -0.75,0.5 0,0.3 -0.45,0.5 -1,0.5 -0.55,0 -1,0.35 -1,0.75 0,0.4 -0.35,0.75 -0.75,0.75 -0.4,0 -0.75,0.25 -0.75,0.5 0,0.3 -0.4,0.5 -0.95,0.5 -0.5,0 -1.05,0.45 -1.2,1 -0.15,0.55 -0.7,1 -1.25,1 -0.55,0 -1.1,0.45 -1.25,1 -0.15,0.7 -0.7,1 -1.55,1 -0.95,0 -1.3,0.25 -1.3,0.9 0,1.4 -1.6,2.6 -3.5,2.6 -1.65,0 -1.65,0 -0.7,-1.05 z"
       id="path67" />
    <path
       d="m 201,26.3 c 0,-1.2 1.7,-2.3 3.5,-2.3 0.55,0 1,-0.2 1,-0.5 0,-0.25 0.8,-0.5 1.75,-0.5 2.55,0 2.15,0.85 -1.1,2.3 -5.25,2.35 -5.15,2.3 -5.15,1 z"
       id="path68" />
    <path
       d="m 213,14 c 0,-0.7 1.4,-1.25 7,-2.7 5.1,-1.35 14.2,-3 19.65,-3.55 3.2,-0.35 3.35,-0.3 3.35,0.7 0,0.85 -0.3,1.05 -1.55,1.05 -3.15,0 -12.35,1.6 -19.1,3.25 -7.15,1.8 -9.35,2.1 -9.35,1.25 z"
       id="path69" />
  </g>
  <g
     fill="#e78277"
     id="g94"
     transform="translate(-0.19130896,-0.19130896)">
    <path
       d="m 124.5,295.65 c 0,-0.6 0.4,-1.15 1,-1.3 0.95,-0.25 1,-0.7 1,-8.8 V 277 h -1.25 c -2.4,0 -1.4,-1.65 1.9,-3.2 4.35,-2.1 9.5,-7.4 12.2,-12.6 3,-5.75 4.65,-11.8 5,-18.55 0.3,-5.3 0.65,-6.65 1.35,-4.9 0.25,0.65 3.55,0.75 25.5,0.75 h 25.25 l 0.6,-1.1 c 0.3,-0.6 1,-1.55 1.5,-2.1 0.95,-1 0.95,-0.95 0.95,0.8 0,1 -0.7,3.25 -1.5,5.05 -2.3,4.85 -4.5,14.2 -4.85,20.35 -0.45,8.35 1.35,17.4 5.4,26.75 1.05,2.5 1.95,5.25 1.95,6.15 v 1.6 h -34.95 c -19.2,0 -36.3,0.15 -38,0.3 -2.85,0.3 -3.05,0.25 -3.05,-0.65 z"
       id="path70" />
    <path
       d="m 309.4,296.15 c -1.4,-0.35 -1.1,-3.05 0.8,-7.2 6.5,-14.25 7.4,-28.2 2.8,-42.6 -0.85,-2.6 -1.85,-5.4 -2.25,-6.2 -0.8,-1.45 -1.05,-4.65 -0.35,-4.65 0.2,0 0.8,0.7 1.35,1.5 l 1,1.5 h 24.9 c 24.5,0 24.95,0 25.2,-1 0.55,-2.15 1.55,-1 1.9,2.15 1.65,15.55 9.95,28.1 20.95,31.55 l 2.8,0.9 V 284.05 296 l -29.1,0.05 c -16.05,0 -33.65,0.1 -39.15,0.2 -5.5,0.05 -10.4,0.05 -10.85,-0.1 z"
       id="path71" />
    <path
       d="m 113.85,270.5 c -1.05,-0.3 -2.6,-0.85 -3.4,-1.3 -2.1,-1.05 -5.95,-4.65 -5.95,-5.5 0,-0.4 -0.25,-0.7 -0.5,-0.7 -0.3,0 -0.8,-0.6 -1.15,-1.35 -0.3,-0.8 -0.85,-1.7 -1.2,-2.05 -0.35,-0.35 -0.65,-1.2 -0.65,-1.9 0,-0.65 -0.2,-1.2 -0.45,-1.2 -0.55,0 -2.05,-5.35 -2.05,-7.4 0,-2.9 1.3,-1.85 2.2,1.8 1.3,5.3 3.55,9.45 7.25,13.15 3.7,3.65 6.45,4.95 10.75,4.95 11.6,-0.05 20.6,-17.4 17.6,-33.95 -1.1,-6.15 -4.2,-12.4 -7.9,-15.8 -2.5,-2.3 -7.05,-4.75 -8.9,-4.75 -0.3,0 -0.5,-0.35 -0.5,-0.75 0,-1 2.7,-1 5.5,0 6.05,2.15 11.2,8.95 13.4,17.75 0.55,2.25 0.8,5.5 0.8,10.5 0,6.05 -0.2,7.9 -1.1,11.25 -2.2,7.6 -6.6,13.75 -11.75,16.2 -2.7,1.3 -8.85,1.85 -12,1.05 z"
       id="path72" />
    <path
       d="m 383.4,265.15 c -2.5,-1.1 -2.9,-1.5 -2.9,-2.65 v -1.4 l 3.15,1.65 c 1.7,0.9 3.95,1.8 5,1.95 1.15,0.2 1.85,0.6 1.85,1.05 0,1.2 -3.9,0.9 -7.1,-0.6 z"
       id="path73" />
    <path
       d="m 391,265.9 c 0,-0.5 0.85,-1 2.4,-1.35 5.4,-1.35 9.5,-5.2 12.65,-11.8 1.7,-3.6 2.35,-5.95 3.2,-11.85 0.2,-1.2 0.55,-1.9 1,-1.9 1.1,0 0.95,4.5 -0.25,9.2 -1.15,4.5 -3.75,10.15 -5.1,11 -0.5,0.3 -0.9,0.8 -0.9,1.1 0,0.7 -2.15,2.7 -2.9,2.7 -0.35,0 -0.6,0.2 -0.6,0.5 0,0.85 -4.05,2.6 -6.8,2.85 -2.2,0.25 -2.7,0.15 -2.7,-0.45 z"
       id="path74" />
    <path
       d="m 376.5,258.5 c 0,-1.1 -0.25,-1.5 -0.9,-1.5 -1.1,0 -3.1,-3.85 -3.1,-6 0,-2.5 0.9,-1.7 3,2.6 1.1,2.25 2.2,4.25 2.4,4.4 0.2,0.15 0.65,0.65 1.05,1.15 0.6,0.75 0.55,0.85 -0.9,0.85 -1.4,0 -1.55,-0.15 -1.55,-1.5 z"
       id="path75" />
    <path
       d="m 409.25,234.65 c -1.35,-8.6 -2.4,-11.75 -5.7,-16.55 -4.35,-6.45 -10.8,-8.9 -17.6,-6.75 -2.1,0.65 -3.4,1.55 -5.95,4.15 -1.8,1.8 -3.65,4.05 -4.1,5 -0.4,0.95 -1.15,2.6 -1.65,3.65 -1.1,2.3 -1.75,2.35 -1.75,0.1 0,-1.85 0.9,-4.25 1.6,-4.25 0.2,0 0.4,-0.45 0.4,-1 0,-0.55 0.25,-1 0.5,-1 0.3,0 0.5,-0.35 0.5,-0.75 0,-0.45 0.35,-0.9 0.75,-1.05 0.4,-0.2 0.75,-0.6 0.75,-0.9 0,-0.75 2.6,-3.3 3.35,-3.3 0.3,0 0.65,-0.35 0.8,-0.75 0.2,-0.4 1.9,-1.2 3.9,-1.8 4.7,-1.45 9.4,-1.1 13.4,0.9 2.45,1.2 2.8,1.6 2.95,3.05 0.15,1.4 0.35,1.6 1.55,1.6 1.6,0 3.15,1.95 5.25,6.5 2.4,5.2 3.75,15 2.05,15 -0.45,0 -0.8,-0.7 -1,-1.85 z"
       id="path76" />
    <path
       d="m 103.5,222.4 c 0,-1.7 0.15,-1.9 1.25,-1.9 1.05,0 1.25,-0.25 1.25,-1.5 0,-1.25 0.2,-1.5 1.25,-1.5 0.9,0 1.25,-0.25 1.25,-1 0,-0.55 0.35,-1 0.75,-1 0.4,0 0.75,-0.2 0.75,-0.5 0,-0.25 0.8,-0.5 1.75,-0.5 2.1,0 2.25,0.6 0.4,1.55 -2.3,1.15 -3.9,2.6 -7.35,6.7 l -1.25,1.5 z"
       id="path77" />
    <path
       d="m 114,214 c 0,-0.8 0.35,-1 1.75,-1 2,0 2.45,1.2 0.65,1.7 -1.9,0.5 -2.4,0.35 -2.4,-0.7 z"
       id="path78" />
    <path
       d="m 381,178 c 0,-1.15 1.3,-1.3 2.65,-0.3 1.25,1 1.05,1.3 -0.9,1.3 -1.4,0 -1.75,-0.2 -1.75,-1 z"
       id="path79" />
    <path
       d="M 162.15,177.15 C 158.1,177 157,176.8 157,176.25 c 0,-0.4 0.7,-0.85 1.65,-1 1.2,-0.2 17.5,-0.05 21.25,0.2 0.3,0.05 0.6,0.35 0.6,0.75 0,0.45 -0.9,0.75 -2.6,1 -2.55,0.3 -4.8,0.25 -15.75,-0.05 z"
       id="path80" />
    <path
       d="M 332.9,177.15 309,177 v -5.65 c 0,-4.65 0.15,-5.85 1,-7.2 1.95,-3.25 1.7,-3.2 25.8,-3.05 l 21.8,0.15 1.7,1.9 1.75,1.85 -0.15,6.15 -0.15,6.1 h -2 c -1.1,0 -12.75,-0.05 -25.85,-0.1 z"
       id="path81" />
    <path
       d="m 181.5,176.3 c 0,-0.35 0.5,-0.8 1.15,-1 0.6,-0.15 27.55,-0.3 59.95,-0.3 h 58.8 l 0.2,-5.35 c 0.1,-3.95 0.4,-5.9 1.1,-7.25 1.5,-3.1 4.6,-6.2 7.4,-7.45 2.55,-1.15 3.15,-1.2 16.65,-1.35 l 14,-0.15 1.85,-4.85 c 4.85,-12.85 6.4,-21.75 6.4,-36.4 0,-11.75 -2,-23.9 -5.75,-34.7 -4.2,-12.2 -13,-27.2 -20.4,-34.65 C 315.25,35.1 300.6,26.6 287,22 c -13.95,-4.65 -31,-6.7 -39.5,-4.75 -8.15,1.9 -16.7,7.65 -20.7,13.85 -1.75,2.75 -3.9,8.3 -4.5,11.55 -0.25,1.2 -0.6,1.85 -1.15,1.85 -0.65,0 -0.75,-0.45 -0.5,-3 0.65,-5.95 5.45,-15.5 7.85,-15.5 0.65,0 1,-0.35 1,-0.9 0,-1 1.95,-3.1 2.9,-3.1 0.35,0 0.6,-0.2 0.6,-0.5 0,-0.25 0.35,-0.5 0.75,-0.5 0.4,0 0.75,-0.2 0.75,-0.45 0,-0.6 5.7,-3.3 9.75,-4.55 12.75,-4 39.1,0.55 58.2,10.05 31,15.35 51.55,42.45 57.65,75.95 0.85,4.75 1.05,7.85 1.1,17.75 0,13.5 -0.85,20.1 -3.85,30.25 l -1.6,5.25 -20.75,0.25 c -20.45,0.25 -20.8,0.25 -23.1,1.4 -3.2,1.6 -6.5,5.35 -7.55,8.6 -0.55,1.65 -0.85,4.25 -0.85,7.05 V 177 h -61 c -51.6,0 -61,-0.1 -61,-0.7 z"
       id="path82" />
    <path
       d="m 244.5,172.45 c -9.5,-1.1 -20.95,-5.3 -23.25,-8.55 -1.25,-1.85 -0.95,-4.1 0.8,-5.85 0.85,-0.85 2,-1.55 2.55,-1.55 0.55,0 3,0.9 5.4,2 11.4,5.1 22.75,5.75 34.25,1.95 7.6,-2.55 11.2,-4.9 18.35,-12.05 4.05,-4.05 6.75,-6.4 7.4,-6.4 2.9,0 5.45,3.1 4.8,5.7 -0.15,0.7 -1.65,2.9 -3.25,4.9 -8.5,10.6 -21.55,17.8 -35.45,19.65 -5.9,0.8 -6.2,0.8 -11.6,0.2 z m 17.25,-3.65 c 9.25,-2.4 18.3,-7.7 25.15,-14.7 4.3,-4.45 6.15,-7.15 5.55,-8.25 -1.05,-1.85 -2.2,-1.9 -4.1,-0.1 -1.05,0.95 -1.85,1.95 -1.85,2.2 0,0.2 -1.75,2.1 -3.9,4.1 -9.7,9.3 -20.8,13.35 -35.1,12.8 -7.75,-0.3 -12.7,-1.4 -18.45,-4.1 -3.85,-1.85 -5.15,-1.9 -6.05,-0.25 -0.8,1.5 1.25,3.3 6.25,5.45 4,1.7 10.75,3.65 15,4.25 3.75,0.55 12.65,-0.15 17.5,-1.4 z"
       id="path83" />
    <path
       d="m 176.6,167.75 c -3.2,-1 -5.4,-2.7 -6.6,-5.15 -1,-1.9 -1.05,-2.4 -0.5,-4.6 1.6,-6.6 11,-11.65 20.15,-10.8 3.95,0.35 5.35,1 7.95,3.5 2,1.95 3.2,5.1 2.6,6.95 -0.7,2.45 -3.4,5.85 -5.75,7.4 -4.7,3 -12.9,4.25 -17.85,2.7 z"
       id="path84" />
    <path
       d="m 126.75,164.8 c -3.15,-1.5 -5.85,-4.3 -7.3,-7.55 -1.55,-3.5 -1.6,-10.45 -0.05,-13.9 1.55,-3.5 2.8,-5.05 5.45,-6.8 1.75,-1.2 2.9,-1.55 4.65,-1.55 h 2.35 l 0.6,4.4 c 0.75,5.1 3.5,16.15 5,20.1 0.6,1.5 1.05,3.6 1.05,4.65 V 166 h -4.6 c -3.85,0 -5.1,-0.2 -7.15,-1.2 z m 9.1,-0.7 c 0.4,-0.25 0.1,-1.75 -1.2,-5.6 -0.95,-2.9 -2.45,-8.9 -3.3,-13.35 -0.9,-4.5 -1.8,-8.15 -2.05,-8.15 -0.25,0 -1.45,0.55 -2.6,1.25 -4.35,2.55 -7.2,9 -6.2,14.15 1.1,5.95 4.6,9.75 10.5,11.4 2.65,0.75 4.05,0.8 4.85,0.3 z"
       id="path85" />
    <path
       d="m 174.85,138 c -1.65,-1.3 -2.35,-3.75 -2.35,-8.45 0,-13.7 11.4,-25.05 25.2,-25.05 9.75,0 18.3,5.35 22.5,14.05 2.3,4.9 2.65,7.2 1.35,9.3 -2.25,3.6 -7.4,2.35 -8.3,-2.05 -0.8,-3.85 -4.9,-8.55 -9,-10.35 -6.1,-2.7 -13.9,-1.05 -18.2,3.8 -3.1,3.55 -3.8,5.5 -3.85,11.05 -0.1,6.05 -0.35,7 -2.2,7.95 -2,1.05 -3.65,0.95 -5.15,-0.25 z m 4.65,-2.4 c 0.15,-0.1 0.35,-2.7 0.5,-5.75 0.25,-4.65 0.5,-6.1 1.55,-8.4 1.65,-3.55 4.35,-6.2 7.9,-7.9 2.45,-1.15 3.45,-1.3 8.05,-1.3 6.4,0 9.15,0.9 12.65,4.2 2.3,2.15 4.85,6.2 4.85,7.7 0,1.15 2,3.35 3,3.35 0.55,0 1.35,-0.55 1.75,-1.2 0.7,-1.1 0.7,-1.4 -0.25,-3.8 -2.4,-6.15 -6.7,-10.75 -12.6,-13.5 -6.6,-3.1 -12.2,-3.1 -18.65,0 -8.5,4.15 -14.25,13.45 -13.6,22.15 0.2,3.1 0.4,3.7 1.6,4.7 1.1,1 1.5,1.1 2.2,0.55 0.45,-0.35 0.9,-0.7 1.05,-0.8 z"
       id="path86" />
    <path
       d="m 317,137.5 c -8.15,-1.45 -11.95,-6.7 -9,-12.45 1.5,-2.95 5.7,-6.35 9.5,-7.65 2.5,-0.9 4.35,-1.15 8,-1.15 4.4,0 4.95,0.1 7.5,1.55 1.5,0.85 3.25,2.3 3.9,3.2 1.4,2.1 1.45,5.35 0.15,7.95 -2.9,5.65 -12.7,9.85 -20.05,8.55 z"
       id="path87" />
    <path
       d="m 274.05,116.3 c -1.65,-1.75 -2.4,-7.2 -1.65,-12.2 1.7,-11 10.3,-20 21.4,-22.35 4.3,-0.9 6.55,-0.9 10.8,0 10.7,2.25 20.15,11.65 20.8,20.7 0.2,2.7 0.15,2.95 -1.4,4.2 -2.65,2.25 -6.3,1.35 -7.45,-1.75 -1.9,-5.05 -3.45,-7.65 -5.9,-9.9 -3.4,-3.1 -7.05,-4.5 -11.65,-4.5 -5.1,0 -8.45,1.45 -12.3,5.2 -3.95,3.9 -5.35,7.3 -5.3,12.95 0,3.55 -0.05,3.85 -1,3.85 -0.95,0 -1,-0.25 -0.8,-5.1 0.15,-4.3 0.45,-5.65 1.6,-8.2 1.7,-3.85 5.1,-7.2 9.05,-9.05 2.75,-1.3 3.5,-1.4 8.75,-1.4 4.45,0 6.25,0.2 8,0.9 5.2,2.15 9.1,6.3 10.8,11.55 0.9,2.7 1.95,4.3 2.95,4.3 0.3,0 1.05,-0.55 1.7,-1.2 l 1.1,-1.15 -1.05,-2.8 c -3.05,-8.2 -9.9,-14.4 -18.25,-16.6 -3.7,-0.95 -6.7,-0.95 -10.25,0 -3.45,0.9 -9.05,3.65 -9.9,4.85 -0.4,0.55 -1.3,0.9 -2.4,0.9 -1.6,0 -1.7,0.1 -1.7,1.7 0,0.95 -0.2,1.9 -0.5,2.05 -1,0.6 -3.95,6.6 -4.7,9.55 -1.4,5.45 -0.75,10.55 1.55,12.05 1,0.7 1.2,0.65 2.4,-0.55 2.45,-2.45 3.85,-0.85 1.7,1.9 -1.4,1.8 -4.75,1.85 -6.4,0.1 z"
       id="path88" />
    <path
       d="m 104.5,114.1 c -1.7,-0.5 -4,-1.75 -4,-2.1 0,-0.25 0.4,-0.5 0.85,-0.6 0.45,-0.1 -2.6,-1.75 -6.75,-3.75 l -7.6,-3.6 v -2.55 c 0,-3.4 1.1,-5.9 2.7,-6.3 2.8,-0.7 8.45,0 11.35,1.45 1.55,0.75 2.9,1.35 3.05,1.35 0.15,0 0.4,-1.45 0.55,-3.25 C 105.3,88 108,85 113.45,85 c 3.6,0 4.25,1.15 3.95,6.65 -0.25,4.1 -2.1,12.9 -4,18.75 -0.95,2.95 -1.05,3.1 -2.65,3.1 -0.9,0 -2.45,-0.35 -3.4,-0.75 -1.75,-0.7 -1.8,-0.7 -1.95,0.45 -0.1,0.75 -0.4,1.05 -0.9,0.9 z"
       id="path89" />
    <path
       d="m 366.85,112.15 c -0.2,-0.15 -0.35,-0.95 -0.35,-1.65 0,-2.8 -2.1,-13.7 -3.8,-19.55 -0.95,-3.3 -1.7,-6.7 -1.7,-7.5 0,-1.4 0.1,-1.45 2.4,-1.45 5.7,0 10.65,2.8 13.3,7.5 1.5,2.65 1.55,3 1.55,8.5 0,5.5 -0.05,5.85 -1.55,8.5 -2,3.55 -5.1,6 -7.65,6 -1.05,0 -2.05,-0.15 -2.2,-0.35 z m 5.6,-4.2 c 2.9,-2.9 3.8,-5.2 3.8,-9.95 0,-4.95 -0.95,-7.25 -4.3,-10.5 -2.9,-2.8 -9.55,-4.85 -8.7,-2.6 1.65,4.25 4.3,15.85 5,21.85 0.2,1.65 0.45,3.15 0.6,3.4 0.3,0.5 1.8,-0.4 3.6,-2.2 z"
       id="path90" />
    <path
       d="m 215.25,59.4 c -1.3,-1.15 -2.2,-3.85 -2.25,-6.5 0,-1.05 0.25,-1.4 1,-1.4 0.85,0 1,0.35 1,1.95 0,2.2 1.55,4.55 3,4.55 2,0 2.5,-1.75 2.15,-7.6 -0.3,-5.2 -0.25,-5.4 0.7,-5.4 0.95,0 1.05,0.4 1.25,5.9 0.2,3.5 0.1,6.25 -0.2,6.85 -1.4,2.75 -4.45,3.5 -6.65,1.65 z"
       id="path91" />
    <path
       d="m 213.15,43.15 c 0.8,-7.25 4.45,-15.85 8.85,-20.75 1.6,-1.8 2.3,-2.9 1.8,-2.9 -0.4,0 -3.25,0.75 -6.25,1.7 L 212,22.85 v -1.1 c 0,-1 0.6,-1.3 5.65,-2.7 3.05,-0.85 6.35,-1.55 7.25,-1.55 1.55,0 1.6,0.1 1.6,2 0,1.8 -0.1,2 -1.25,2 -1,0 -1.25,0.25 -1.25,1.2 0,0.7 -0.4,1.55 -0.85,1.9 -2.95,2.2 -8.15,15.05 -8.15,20.1 0,1 -0.25,1.3 -1.05,1.3 -1.05,0 -1.05,-0.15 -0.8,-2.85 z"
       id="path92" />
    <path
       d="m 188,33.25 c 0,-1 0.25,-1.25 1.25,-1.25 0.8,0 1.25,-0.3 1.25,-0.75 0,-0.55 0.55,-0.75 1.85,-0.75 1.75,0 1.8,0 0.9,1 -0.5,0.55 -1.1,1 -1.35,1 -0.3,0 -1.05,0.45 -1.75,1 -1.7,1.3 -2.15,1.25 -2.15,-0.25 z"
       id="path93" />
    <path
       d="m 208,23.25 c 0,-1.1 0.2,-1.25 1.8,-1.25 2.2,0 2.1,0.9 -0.2,1.85 -1.55,0.65 -1.6,0.6 -1.6,-0.6 z"
       id="path94" />
  </g>
  <g
     fill="#333232"
     stroke="#333232"
     stroke-width="0.5"
     id="g102">
    <path
       d="M145.75 352 l-16.50 -0.25 -3.35 -1.60 c-6.10 -2.85 -10.65 -8.80 -11.85 -15.40 -0.35 -1.90 -0.55 -12.65 -0.55 -30.10 0 -25.45 -0.05 -27.20 -0.85 -27.45 -9.25 -3 -16.35 -11.20 -19.95 -22.95 -1.25 -4.05 -1.40 -5.25 -1.40 -12.25 -0.05 -6.60 0.15 -8.35 1.10 -11.75 3.30 -11.40 10.50 -20.30 18.75 -23.05 l2.35 -0.80 0 -5.10 c0 -8.85 1.55 -13.95 5.65 -18.60 4.05 -4.60 9.15 -6.65 16.85 -6.80 3.05 -0.05 5.65 -0.25 5.80 -0.45 0.10 -0.20 -0.05 -0.90 -0.30 -1.55 -0.55 -1.10 -0.75 -1.15 -6.90 -1.15 -6.35 0 -6.40 0 -10.15 -1.85 -4.95 -2.45 -8.40 -5.85 -10.80 -10.70 -1.65 -3.40 -1.90 -4.30 -2.05 -8.50 -0.25 -5.20 0.30 -8.10 2.25 -11.95 2.65 -5.35 6.55 -8.80 12.60 -11.25 l3.20 -1.30 0.20 -5.75 c0.60 -21.45 7.15 -41.95 19.10 -59.70 12.20 -18.15 27.50 -31.50 47.30 -41.25 12.40 -6.10 23.80 -9.75 37.25 -11.85 8.20 -1.30 28 -1.25 35.75 0 22.40 3.75 42.60 12.75 58.75 26.25 12.25 10.25 24.40 25.55 29.60 37.35 l1.15 2.65 4.85 0.20 c4.20 0.20 5.25 0.45 8.50 2 5.30 2.55 8.45 5.60 10.95 10.65 1.75 3.55 2.10 4.70 2.30 8.35 0.15 2.35 0.05 5.35 -0.30 6.85 -1.45 6.75 -6.20 12.65 -12.70 15.75 l-3.70 1.80 -0.35 5.75 c-0.45 7.70 -1.80 15.75 -4.05 23.95 l-1.85 6.80 2 2.25 c2.75 3.10 3.60 5.90 3.60 11.60 l0 4.65 3.65 0 c14.55 0.05 23.85 8.95 23.85 22.85 0 3.05 0.15 3.75 0.90 3.95 7.10 2.30 13.50 8.15 17.20 15.70 3.25 6.55 3.95 9.55 4.25 17.75 0.30 7.95 -0.35 12.15 -2.75 18.40 -2.90 7.50 -8.50 13.95 -14.70 17.10 -1.95 0.95 -3.85 1.75 -4.20 1.75 -0.60 0 -0.70 5 -0.70 30.15 0 32.05 -0.05 33.10 -2.45 37.75 -1.80 3.55 -5.40 6.95 -9.30 8.90 -3.15 1.55 -4.40 1.90 -8.35 2.15 -5.25 0.40 -204.20 0.45 -229.65 0.05z m233.40 -9.45 c2.65 -1.15 5.30 -3.65 6.65 -6.35 0.85 -1.80 0.95 -3.30 1.10 -17.30 l0.15 -15.40 -41.65 0 -41.65 0 -4.25 4.30 c-4.70 4.75 -8.55 7.80 -13.45 10.70 -9.95 5.75 -23.10 8.95 -34.30 8.30 -16.30 -0.95 -29.85 -6.95 -41.45 -18.35 l-5 -4.90 -14.75 -0.05 c-8.15 0 -26.90 -0.05 -41.65 0 l-26.90 0 0 14 c0 7.80 0.25 15 0.50 16.35 0.75 3.45 3.35 6.75 6.55 8.35 l2.65 1.30 122.60 0 c119.65 0 122.65 0 124.85 -0.95z m-180.30 -48.20 c0.05 -0.10 -0.75 -2.15 -1.80 -4.65 -2.45 -5.70 -3.80 -10.20 -4.85 -16.45 -1.80 -10.80 0.15 -24.95 4.80 -34.65 1.10 -2.30 2 -4.50 2 -4.90 0 -0.60 -4.10 -0.70 -26.65 -0.70 l-26.65 0 0 8.40 c0 7.65 -0.15 8.70 -1.40 12.85 -3.50 11.50 -10.20 19.45 -18.90 22.45 l-3.15 1.10 -0.15 8.30 -0.10 8.35 2.10 0.15 c2.65 0.20 74.55 -0.05 74.75 -0.25z m157.05 0.25 l31.10 -0.10 0 -10.45 0 -10.45 -2.80 -0.90 c-11.70 -3.65 -20.50 -17.90 -21 -33.95 -0.05 -2.75 -0.15 -5.15 -0.15 -5.35 -0.05 -0.60 -52.45 -0.50 -52.80 0.05 -0.15 0.30 0.40 1.90 1.25 3.65 4.20 8.60 6.25 18.90 5.85 29.15 -0.35 9.40 -1.90 15.95 -5.65 24.20 -0.95 2.05 -1.70 3.75 -1.70 3.85 0 0.35 2.25 0.45 8.25 0.40 3.60 0 20.50 -0.10 37.65 -0.10z m-99.50 -14.40 c1.75 -1.20 2.25 -2.95 1.35 -4.65 -1.30 -2.50 -4.55 -2.85 -6.25 -0.70 -2.65 3.40 1.40 7.80 4.90 5.35z m-131.90 -12.30 c4.95 -2.40 9.45 -8.65 11.55 -16.15 1.40 -4.95 1.55 -13.75 0.30 -18.75 -2.90 -11.80 -10.40 -19.05 -19.05 -18.40 -7.35 0.60 -13.15 6.60 -16.40 16.90 -1 3.20 -1.15 4.75 -1.15 10.75 0.05 6.30 0.15 7.40 1.40 10.95 4.60 13.15 14.05 19.10 23.35 14.70z m272.50 -4.40 c7.35 -3.75 12.50 -14.30 12.50 -25.55 0 -9.35 -2.55 -16.75 -7.65 -22.25 -4.65 -5.05 -9.60 -6.55 -15.50 -4.70 -2.85 0.90 -3.90 1.55 -6.35 4 -5.40 5.40 -8.15 12.90 -8.20 22.50 -0.05 6.70 0.55 9.60 3.20 15.35 2.40 5.10 5.70 8.80 9.75 10.75 2.65 1.30 3.40 1.45 6.50 1.25 2.35 -0.10 4.25 -0.55 5.75 -1.35z m-139.15 -6.30 c3.20 -2 3.45 -6.85 0.45 -9.55 -4.05 -3.70 -9.80 -0.90 -9.80 4.80 0 4.60 5.30 7.30 9.35 4.75z m-48.60 -36.85 c2.25 -2.30 5.55 -5.25 7.30 -6.55 17.30 -13 39.50 -16.30 60 -8.80 8.40 3.05 18.90 10.10 24.55 16.50 l2.60 3 30.65 0 30.60 0 1.05 -2.85 c2.40 -6.45 7.40 -13.10 12.35 -16.35 1.20 -0.80 3.55 -1.95 5.25 -2.55 l3.15 -1.15 0.15 -2.40 c0.40 -5.90 -2.30 -11.10 -7 -13.40 l-2.65 -1.30 -122.65 0 c-119.05 0 -122.75 0 -124.80 0.95 -5.40 2.35 -7.80 7.05 -7.80 15.30 l0 5.25 1.40 0.30 c2.60 0.65 6.80 2.75 8.90 4.45 1.15 0.95 2.25 1.75 2.40 1.75 0.15 0 0.35 -4 0.40 -8.85 l0.15 -8.90 21.15 -0.15 21.10 -0.10 0 9.75 0 9.75 -20.15 0 c-11.10 0 -20.30 0.15 -20.45 0.30 -0.20 0.15 0.70 1.70 1.90 3.45 1.20 1.75 2.55 3.95 2.95 4.95 l0.75 1.80 31.35 0 31.30 0 4.10 -4.15z m29.65 -44.80 l63.10 -0.05 0 -4.45 c0 -2.80 0.30 -5.40 0.85 -7.05 1.05 -3.25 4.35 -7 7.55 -8.60 2.30 -1.15 2.65 -1.15 23.10 -1.40 l20.75 -0.25 1.60 -5.25 c2.90 -9.75 3.85 -16.90 3.80 -28.75 -0.05 -11.65 -0.80 -17.55 -3.60 -27.20 -12.10 -41.90 -49.30 -71.80 -94.55 -76.10 -7.80 -0.70 -11.25 -0.40 -17.10 1.55 -11.40 3.80 -18.90 11.45 -21.75 22.05 -0.60 2.35 -0.80 5.05 -0.75 10.30 0.05 8.10 -0.30 8.95 -3.50 9.50 -1.60 0.25 -2.05 0.05 -3.30 -1.20 -1.35 -1.30 -1.55 -1.90 -1.85 -5.85 -0.65 -7.75 0.65 -15.45 3.75 -22.05 1.90 -4.05 5.90 -9.85 7.40 -10.70 1.90 -1.05 0 -0.95 -4.40 0.25 -9.60 2.65 -21.85 8.05 -30.25 13.35 -14.40 9.15 -27.90 22.80 -36.45 36.90 -11 18.20 -16.45 40.50 -14.85 60.60 1.10 13.75 4.70 26.95 10.30 38.10 l3.05 6 8.45 0.25 c4.70 0.15 10.10 0.20 12 0.20 1.95 -0.05 31.90 -0.10 66.65 -0.15z m120.50 -4.45 l0.15 -4.55 -1.75 -1.90 -1.70 -1.90 -20.30 -0.15 c-22.45 -0.15 -22.35 -0.15 -24.30 3.05 -0.80 1.25 -1 2.50 -1 5.70 l0 4.15 23.90 0.10 c13.10 0.10 24.10 0.15 24.35 0.10 0.30 0 0.55 -2 0.65 -4.60z m-222.40 -6.95 c0 -0.25 -0.45 -1.65 -1.05 -3.15 -1.50 -3.95 -4.25 -15 -5 -20.10 -0.70 -5.10 -1 -5.25 -4.60 -2.85 -4.10 2.70 -6.40 7.10 -6.40 12.20 0 7.90 6.15 14.25 13.95 14.25 1.70 0 3.10 -0.15 3.10 -0.35z m234.55 -54.75 c2.95 -2.30 5 -6.15 5.30 -10.05 0.60 -7.60 -3.85 -13.80 -11.15 -15.40 -1.50 -0.35 -2.80 -0.50 -2.90 -0.40 -0.10 0.10 0.55 2.85 1.45 6.10 1.65 5.70 3.75 16.60 3.75 19.35 0 2.50 0.70 2.55 3.55 0.40z"
       id="path95" />
    <path
       d="M242.75 171.70 c-7.45 -1.10 -18.55 -5.10 -20.60 -7.45 -1.60 -1.85 -1.55 -4.45 0.15 -6 0.75 -0.70 1.80 -1.25 2.35 -1.25 0.55 0 2.95 0.90 5.35 2 14.75 6.80 31.20 5.70 44.35 -3 3.90 -2.55 6.80 -5.25 12.55 -11.65 2.10 -2.30 4.45 -2.55 6.35 -0.60 2.55 2.50 1.25 5.55 -4.85 11.85 -6.85 7 -15.85 12.30 -25.15 14.70 -3.95 1 -6.45 1.35 -12 1.45 -3.85 0.10 -7.65 0.05 -8.50 -0.05z"
       id="path96" />
    <path
       d="M174.65 137.30 c-1.30 -1.10 -1.35 -1.45 -1.55 -6.20 -0.25 -6.20 0.85 -10.40 3.95 -15.05 8.70 -13.05 27.20 -14.85 38.35 -3.65 3.30 3.30 6.15 8.65 6.50 12.15 0.20 2.05 0.05 2.55 -1.05 3.65 -1.80 1.80 -4 1.75 -5.90 -0.15 -0.80 -0.80 -1.45 -1.85 -1.45 -2.30 0 -1.50 -2.40 -5.50 -4.60 -7.60 -3.25 -3.15 -6.35 -4.40 -11.15 -4.40 -3.30 0 -4.50 0.25 -6.80 1.30 -3.55 1.65 -6.20 4.35 -7.90 7.90 -1.10 2.35 -1.30 3.55 -1.35 7.55 -0.10 6.20 -0.05 5.80 -1.30 7 -1.50 1.35 -4 1.30 -5.75 -0.20z"
       id="path97" />
    <path
       d="M274.65 116.25 c-1.45 -1 -2.15 -3.65 -2.15 -8.20 0 -14.75 11.75 -26.50 26.50 -26.55 7.25 0 13.60 2.60 18.80 7.75 3.55 3.50 6.70 9.40 7.10 13.15 0.20 2.25 0.10 2.50 -1.40 3.75 -2.95 2.50 -5.75 1.15 -7.25 -3.45 -2.45 -7.80 -8.90 -12.45 -17.25 -12.45 -3.60 0 -4.70 0.20 -7.25 1.40 -3.90 1.80 -7.30 5.20 -9.10 9.05 -1.25 2.80 -1.40 3.55 -1.40 8.70 0 5.35 -0.05 5.75 -1.20 6.65 -1.40 1.15 -3.90 1.25 -5.40 0.20z"
       id="path98" />
    <path
       d="M384.50 132.95 c-2.30 -1.55 -4.20 -1.70 -8.10 -0.70 -2.30 0.60 -2.40 -1 -0.20 -3.05 2.25 -2.05 2.90 -3.70 2.85 -7.05 0 -1.45 0.20 -2.75 0.45 -2.90 0.30 -0.20 1.55 0.35 2.85 1.20 2.55 1.70 5.95 2.10 8.40 0.95 1.10 -0.50 1.40 -0.45 1.80 0.15 0.65 1.10 0.55 1.35 -1.10 2.80 -2.20 2 -3.10 4 -3.15 7.15 -0.05 3.35 -0.65 3.55 -3.80 1.45z m1.35 -5.30 c0.70 -2.20 0.45 -2.60 -1.95 -2.95 -1.60 -0.30 -1.80 -0.15 -2.10 0.95 -0.15 0.70 -0.40 1.60 -0.55 1.95 -0.20 0.50 0.25 0.90 1.35 1.25 2.50 0.80 2.60 0.80 3.25 -1.20z"
       id="path99" />
    <path
       d="M106.75 114.95 c-1.90 -0.85 -6.05 -2.50 -9.20 -3.75 -11.20 -4.35 -14 -6.55 -14.45 -11.20 -0.30 -3.45 0.55 -5.25 3.10 -6.50 2.70 -1.30 6.45 -1.30 11.55 0 2.15 0.55 3.95 1 4.05 1 0.05 0 0.50 -1.20 0.90 -2.70 1.70 -5.90 5.65 -9.50 10.25 -9.50 7 0.05 9.25 5.75 6.25 16 -0.70 2.45 -1.60 6.25 -2 8.45 -1.05 5.75 -1.60 7.05 -3.25 8.50 -1.95 1.60 -2.90 1.55 -7.20 -0.30z m5.15 -6.05 c1.40 -4.35 3.65 -14.10 3.95 -17.25 0.20 -1.95 0.10 -2.95 -0.55 -3.90 -1 -1.50 -2.20 -1.60 -4.85 -0.20 -2.50 1.25 -3.80 3.85 -4.30 8.70 -0.50 4.10 -1.35 5 -3.50 3.60 -4.25 -2.80 -9.80 -4.10 -12.05 -2.90 -1.10 0.60 -2.40 4 -2 5.15 0.45 1.10 18.05 9 22 9.85 0.15 0 0.75 -1.35 1.30 -3.05z"
       id="path100" />
    <path
       d="M401.80 95.55 c-0.45 -0.45 -0.80 -1.20 -0.80 -1.60 0 -1.20 -2.40 -4.30 -4.20 -5.40 -0.95 -0.60 -2.70 -1.25 -3.90 -1.45 -1.85 -0.35 -2.15 -0.55 -2.15 -1.60 0 -1.05 0.30 -1.25 2.10 -1.60 3.95 -0.65 6.55 -2.70 8.40 -6.55 0.55 -1.15 1.35 -2.10 1.75 -2.10 0.40 0 1.35 1.30 2.10 2.85 1.65 3.45 4.45 5.70 7.75 6.20 1.20 0.15 2.35 0.65 2.50 1 0.40 1.10 -0.80 2.20 -2.45 2.20 -3.30 0 -6.85 2.60 -8.40 6.30 -1.15 2.60 -1.65 2.90 -2.70 1.75z m5.15 -9.95 c-0.05 -0.20 -0.90 -1.30 -1.95 -2.40 l-1.90 -2.10 -2.45 2.30 -2.40 2.25 2.25 2.30 2.25 2.30 2.10 -2.15 c1.20 -1.15 2.10 -2.30 2.10 -2.50z"
       id="path101" />
    <path
       d="M374.80 66.90 c-0.15 -0.35 -0.35 -1.55 -0.55 -2.65 -0.90 -5.50 -5.25 -10.80 -10.05 -12.35 -3.45 -1.10 -3.60 -2.45 -0.35 -3.65 5.80 -2.15 9.65 -6.90 10.55 -12.85 0.30 -2.20 0.55 -2.65 1.35 -2.65 0.85 0 1.10 0.55 1.60 3.15 0.75 3.75 1.60 5.50 4 8.15 1.80 1.95 5.90 4.45 7.30 4.45 0.40 0 1 0.35 1.35 0.80 0.85 1 0.05 1.75 -3.05 2.90 -2.70 0.95 -5.95 3.60 -7.40 6 -0.60 0.95 -1.45 3.35 -1.95 5.35 -0.65 2.60 -1.15 3.75 -1.75 3.85 -0.50 0.10 -0.95 -0.10 -1.05 -0.50z m2.25 -10.20 c0.35 -0.70 1.95 -2.50 3.55 -3.95 1.60 -1.50 2.90 -2.80 2.90 -2.90 0 -0.10 -0.90 -0.85 -1.95 -1.60 -1.10 -0.75 -2.75 -2.45 -3.65 -3.80 -0.90 -1.35 -1.80 -2.45 -2 -2.45 -0.15 0 -1.10 1.15 -2.10 2.50 -1 1.40 -2.70 3.15 -3.80 3.90 -1.05 0.75 -1.90 1.50 -1.85 1.70 0.05 0.20 0.90 0.85 1.85 1.50 0.95 0.65 2.65 2.35 3.70 3.80 1.05 1.45 2.10 2.60 2.30 2.60 0.20 0 0.65 -0.60 1.05 -1.30z"
       id="path102" />
  </g>
</svg>
