<?xml version="1.0" encoding="UTF-8" standalone="no"?>
<svg
   version="1.0"
   width="443.71725pt"
   height="331.37845pt"
   viewBox="0 0 443.71725 331.37845"
   preserveAspectRatio="xMidYMid"
   id="svg3"
   xmlns="http://www.w3.org/2000/svg">
  <defs
     id="defs3" />
  <g
     transform="matrix(0.05,0,0,-0.05,-2.4889519,456.56241)"
     fill="#000000"
     stroke="none"
     id="g3">
    <path
       d="m 4829,9120 c -416,-53 -614,-170 -1094,-644 -494,-488 -606,-561 -975,-636 -245,-50 -309,-52 -250,-9 154,112 161,154 51,300 -137,181 -192,198 -704,206 -622,10 -764,-20 -931,-195 -140,-145 -129,-222 45,-307 118,-57 113,-68 -37,-80 C 479,7719 145,7109 82,6200 42,5606 38,3650 77,3370 c 73,-528 316,-763 836,-809 312,-27 2667,-28 2667,-1 0,11 -9,20 -20,20 -11,0 -20,14 -20,30 0,21 -23,31 -75,33 -60,2 -64,5 -20,11 244,37 -147,58 -1485,77 -1665,25 -1635,7 -1682,999 -79,1684 29,3052 277,3490 199,352 245,364 1475,400 1132,32 1191,54 1793,660 593,597 751,670 1437,669 724,-1 932,-82 1239,-478 248,-322 384,-421 748,-549 98,-35 184,-67 192,-71 8,-5 -36,-61 -98,-125 -295,-305 -177,-655 249,-737 468,-90 739,259 481,621 -86,121 -81,127 54,65 334,-153 486,-572 557,-1536 42,-559 -8,-3064 -63,-3212 -20,-52 -269,-154 -461,-188 -350,-62 -2116,-41 -2672,32 -1700,223 -2652,1323 -2359,2729 302,1453 1807,2260 3016,1616 631,-336 1173,-1124 1237,-1800 75,-778 -230,-1390 -1020,-2047 -226,-188 -293,-284 -183,-260 39,9 65,3 82,-18 32,-38 67,-21 241,119 1215,981 1436,2126 640,3317 C 6391,7547 5044,7851 3989,7139 2692,6264 2477,4500 3538,3445 c 715,-711 1755,-969 3787,-939 868,13 1103,50 1363,215 140,89 163,233 211,1349 73,1678 -14,2822 -249,3300 -166,338 -271,413 -745,532 -727,182 -947,300 -1267,681 -309,367 -465,459 -868,516 -218,31 -769,43 -941,21 z M 2109,8139 c 285,-33 365,-98 211,-173 -329,-159 -795,-176 -1155,-42 -364,135 307,288 944,215 z m 5712,-514 c 220,-248 151,-485 -140,-485 -322,0 -394,326 -113,515 127,86 153,83 253,-30 z"
       id="path1" />
    <path
       d="M 4789,6612 C 3999,6365 3314,4953 3780,4532 c 331,-299 1023,-50 1409,507 78,112 54,151 -31,51 -427,-505 -946,-738 -1249,-560 -527,308 191,1819 958,2018 301,79 286,-167 -38,-619 -122,-170 -129,-189 -63,-189 90,0 377,464 406,654 30,201 -136,295 -383,218 z"
       id="path2" />
    <path
       d="m 5882,5698 c -516,-61 -1260,-416 -1367,-652 -35,-76 16,-111 68,-46 398,502 1509,816 1900,538 249,-177 167,-710 -180,-1172 -114,-153 -133,-160 -443,-174 -137,-6 -302,-24 -365,-39 -64,-15 -119,-22 -123,-15 -5,6 45,278 110,602 119,598 125,648 65,636 -27,-5 -57,-124 -156,-630 -68,-343 -128,-630 -135,-637 -7,-7 -84,-37 -171,-67 -636,-221 -506,-651 146,-481 292,77 621,258 900,497 l 119,102 h 216 c 139,0 212,7 204,20 -7,11 -88,20 -181,20 -176,0 -210,21 -137,82 18,14 66,76 107,137 529,780 259,1378 -577,1279 z m 197,-1563 c -2,-72 -530,-393 -802,-487 -515,-178 -726,66 -251,289 222,105 220,105 203,-25 -13,-104 -11,-112 27,-112 41,0 45,10 75,183 12,72 15,74 136,96 99,19 471,69 588,79 14,1 25,-9 24,-23 z"
       id="path3" />
  </g>
</svg>
