<?xml version="1.0" encoding="UTF-8" standalone="no"?>
<svg
   version="1.0"
   width="900pt"
   height="900pt"
   viewBox="0 0 900 900"
   preserveAspectRatio="xMidYMid"
   id="svg31"
   sodipodi:docname="E6jABN01.svg"
   xmlns:inkscape="http://www.inkscape.org/namespaces/inkscape"
   xmlns:sodipodi="http://sodipodi.sourceforge.net/DTD/sodipodi-0.dtd"
   xmlns="http://www.w3.org/2000/svg"
   xmlns:svg="http://www.w3.org/2000/svg">
  <defs
     id="defs31" />
  <sodipodi:namedview
     id="namedview31"
     pagecolor="#ffffff"
     bordercolor="#000000"
     borderopacity="0.25"
     inkscape:showpageshadow="2"
     inkscape:pageopacity="0.0"
     inkscape:pagecheckerboard="0"
     inkscape:deskcolor="#d1d1d1"
     inkscape:document-units="pt">
    <inkscape:page
       x="0"
       y="0"
       width="900"
       height="900"
       id="page2"
       margin="0"
       bleed="0" />
  </sodipodi:namedview>
  <metadata
     id="metadata1">
Created by potrace 1.10, written by Peter Selinger 2001-2011
</metadata>
  <g
     transform="matrix(0.13669095,0,0,-0.13669095,-223.87687,1098.535)"
     fill="#000000"
     stroke="none"
     id="g31">
    <path
       d="m 7070,6065 c -7,-8 -24,-15 -37,-15 -16,0 -27,-7 -30,-20 -3,-11 -20,-24 -39,-30 -19,-7 -41,-24 -51,-40 -9,-16 -25,-31 -35,-33 -10,-3 -18,-11 -18,-19 -1,-14 -73,-68 -91,-68 -17,0 -81,-41 -75,-48 8,-7 87,19 107,35 8,7 25,13 37,13 12,0 22,6 22,14 0,16 56,76 72,76 5,0 26,18 47,40 20,22 42,40 48,40 6,0 22,9 37,21 24,19 29,20 44,7 11,-10 42,-15 93,-16 82,-1 155,-23 164,-50 2,-10 22,-36 43,-59 31,-36 44,-43 74,-43 29,0 41,-6 58,-30 12,-16 28,-30 36,-30 8,0 28,-9 43,-21 48,-36 17,-77 -50,-67 -20,2 -24,10 -27,46 -3,45 -11,51 -36,26 -22,-22 -20,-34 14,-71 25,-28 37,-33 73,-33 53,0 82,28 72,69 -3,14 -6,36 -6,49 1,15 -7,26 -23,32 -13,5 -27,14 -31,19 -3,6 -19,11 -36,11 -16,0 -29,4 -29,8 0,5 -17,14 -37,20 -22,7 -49,25 -63,43 -24,31 -50,58 -95,98 -27,25 -99,35 -125,19 -17,-11 -22,-10 -30,1 -12,21 -104,25 -120,6 z"
       id="path1" />
    <path
       d="m 6428,5909 c -34,-36 -19,-92 30,-118 20,-11 27,-10 43,5 15,14 31,16 83,11 63,-6 63,-6 95,29 36,41 38,55 13,78 -29,25 -239,21 -264,-5 z m 216,-15 c 9,-3 16,-14 16,-24 0,-25 -19,-30 -121,-30 -88,0 -89,0 -89,24 0,15 7,26 18,29 26,7 158,8 176,1 z"
       id="path2" />
    <path
       d="m 7683,5812 c 10,-10 17,-23 17,-29 0,-5 9,-18 20,-28 13,-12 17,-25 14,-45 -4,-17 0,-37 11,-53 9,-14 16,-36 15,-49 -1,-13 -2,-94 -1,-181 1,-135 3,-159 17,-164 9,-3 20,0 24,7 13,21 -4,396 -19,414 -5,6 -12,30 -16,53 -3,23 -13,44 -21,47 -8,3 -14,12 -14,20 0,15 -21,26 -47,26 -14,0 -14,-2 0,-18 z"
       id="path3" />
    <path
       d="m 2330,5799 c -19,-4 -57,-12 -85,-18 -201,-40 -400,-149 -477,-264 -33,-48 -34,-58 -9,-81 19,-17 21,-17 45,8 14,14 26,31 26,39 0,25 76,102 138,140 33,20 64,37 70,37 5,0 23,7 38,15 16,8 36,15 45,15 9,0 19,3 23,7 7,8 59,22 151,43 22,5 92,9 156,10 107,0 119,-2 169,-27 30,-16 58,-35 63,-44 19,-31 -4,-73 -86,-154 -76,-74 -111,-101 -267,-205 -30,-20 -90,-60 -133,-88 -43,-29 -84,-52 -91,-52 -12,0 -13,33 -9,194 6,189 5,194 -15,205 -28,15 -51,4 -58,-26 -4,-14 -5,-117 -2,-228 l 5,-203 -41,-23 c -22,-12 -46,-30 -53,-38 -17,-23 10,-49 56,-53 l 36,-3 -4,-257 -3,-257 26,-7 c 16,-4 32,-1 43,7 14,12 15,41 11,262 -3,136 -2,250 2,252 11,7 205,-13 255,-26 95,-24 152,-41 178,-55 16,-8 33,-14 38,-14 19,0 116,-67 156,-107 43,-44 78,-101 85,-138 3,-21 5,-20 -132,-45 -36,-6 -79,-18 -97,-26 -17,-8 -39,-14 -50,-14 -15,0 -82,-23 -258,-87 -73,-27 -269,-127 -345,-177 -168,-111 -290,-273 -290,-386 0,-84 58,-173 148,-227 46,-27 51,-28 192,-28 148,0 173,5 280,53 49,22 178,99 196,117 9,8 19,15 23,15 13,0 192,183 207,211 7,15 20,29 29,32 8,4 15,14 15,22 0,9 11,31 24,48 71,96 136,265 136,357 0,43 5,63 20,81 l 21,23 -31,29 c -16,15 -30,35 -30,43 0,29 -39,90 -87,135 -78,74 -110,93 -248,150 -72,30 -232,59 -352,66 -90,4 -93,5 -93,29 0,20 13,30 73,60 39,20 74,40 77,45 3,4 17,13 30,19 40,17 146,88 270,181 130,97 230,211 230,262 0,53 -78,116 -177,141 -64,17 -202,19 -263,5 z m 489,-1212 c 12,-15 -3,-103 -32,-187 -26,-77 -132,-270 -148,-270 -5,0 -18,-18 -29,-39 -26,-51 -190,-207 -245,-232 -11,-5 -29,-15 -40,-21 -82,-53 -98,-60 -251,-108 -17,-6 -60,-10 -97,-10 -80,0 -161,32 -193,76 -48,67 -47,170 4,269 26,50 110,139 182,192 90,67 353,203 392,203 8,0 18,4 23,8 6,5 64,26 130,46 66,20 140,43 165,52 25,8 55,14 67,14 12,0 25,5 28,10 9,14 31,12 44,-3 z"
       id="path4" />
    <path
       d="m 2205,4116 c -15,-11 -17,-17 -7,-28 9,-11 42,-15 142,-17 139,-2 180,4 180,24 0,17 -57,25 -123,18 -35,-4 -57,-2 -61,6 -10,16 -108,14 -131,-3 z"
       id="path5" />
    <path
       d="m 2057,4094 c -18,-18 -3,-25 48,-22 30,2 56,8 58,13 2,11 -95,20 -106,9 z"
       id="path6" />
    <path
       d="m 5210,5799 c -19,-4 -57,-12 -85,-17 -219,-43 -451,-181 -494,-295 -8,-20 -6,-31 8,-49 17,-20 21,-21 36,-8 10,8 24,30 32,48 20,48 75,104 142,145 32,21 63,37 69,37 5,0 23,7 38,15 16,8 36,15 45,15 8,0 19,4 25,9 5,5 29,14 54,19 25,6 63,15 85,21 22,6 96,10 165,10 117,0 128,-2 174,-27 27,-15 54,-34 59,-43 20,-31 -4,-73 -87,-154 -70,-69 -117,-105 -280,-214 -124,-84 -200,-131 -212,-131 -13,0 -14,24 -8,174 4,95 4,185 0,200 -6,24 -11,27 -39,24 l -32,-3 1,-227 v -226 l -40,-23 c -23,-13 -46,-30 -53,-38 -17,-23 10,-49 56,-53 l 36,-3 -4,-257 -4,-257 27,-7 c 16,-4 32,-1 42,7 14,11 15,43 10,258 -3,135 -2,252 2,259 6,9 16,10 38,3 16,-5 65,-12 109,-16 44,-3 94,-10 110,-15 17,-4 57,-16 90,-25 121,-33 215,-83 284,-154 44,-45 97,-141 83,-152 -4,-3 -50,-13 -102,-23 -52,-10 -109,-24 -127,-32 -17,-8 -38,-14 -47,-14 -9,0 -45,-9 -79,-21 -200,-67 -405,-162 -527,-244 -76,-51 -230,-194 -230,-214 0,-6 -13,-35 -30,-64 -65,-116 -21,-244 113,-329 l 52,-33 h 145 c 118,0 155,4 200,20 60,21 164,74 220,111 19,13 51,35 70,48 38,25 210,195 210,207 0,4 18,29 40,54 22,25 40,51 40,57 0,6 18,43 41,82 50,87 86,195 95,284 5,43 13,71 23,79 14,10 12,15 -16,42 -18,16 -33,37 -33,46 0,31 -39,91 -92,140 -65,62 -97,84 -168,114 -30,13 -62,27 -70,30 -17,8 -118,33 -229,56 -40,8 -107,15 -147,15 -72,0 -74,1 -74,25 0,20 12,31 68,61 37,19 85,46 107,59 22,13 50,30 62,37 36,21 132,88 213,149 131,98 230,211 230,263 0,53 -77,114 -177,140 -64,17 -202,19 -263,5 z m 489,-1212 c 12,-15 -3,-103 -32,-187 -35,-103 -138,-278 -212,-358 -51,-55 -187,-173 -215,-185 -8,-4 -24,-13 -35,-19 -121,-78 -205,-107 -333,-115 -173,-11 -274,95 -238,250 17,72 46,122 108,188 93,99 243,194 418,265 47,19 94,39 105,44 11,5 65,24 120,40 55,17 127,40 161,51 33,10 70,19 82,19 11,0 24,5 27,10 9,14 31,12 44,-3 z"
       id="path7" />
    <path
       d="m 5201,4176 c -48,-17 -64,-62 -31,-88 26,-21 53,-17 86,14 24,22 154,37 154,18 0,-5 11,-10 25,-10 30,0 33,20 5,27 -11,3 -20,12 -20,20 0,11 -10,14 -35,12 -19,-2 -40,2 -47,9 -15,15 -92,14 -137,-2 z"
       id="path8" />
    <path
       d="m 6339,5787 c -9,-12 -19,-32 -23,-44 -4,-13 -12,-23 -17,-23 -11,0 -10,-94 1,-130 6,-23 8,-22 14,15 4,22 10,47 14,55 3,8 6,20 7,25 5,42 29,84 55,95 39,16 38,30 -2,30 -22,-1 -38,-8 -49,-23 z"
       id="path9" />
    <path
       d="m 7090,5776 c -56,-16 -90,-34 -90,-47 0,-6 -8,-8 -19,-4 -25,8 -113,-62 -135,-109 -9,-19 -22,-39 -29,-43 -18,-12 -36,-52 -46,-103 -5,-25 -15,-60 -22,-78 -12,-29 -12,-37 4,-63 9,-17 17,-40 17,-50 0,-31 30,-117 46,-130 8,-6 14,-16 14,-22 0,-13 50,-67 62,-67 9,0 100,-61 109,-73 13,-18 66,-40 99,-43 19,-1 64,-8 100,-14 82,-15 225,-23 257,-15 51,12 7,25 -89,25 -81,0 -103,3 -113,16 -8,11 -28,16 -66,17 -30,0 -58,3 -64,7 -5,3 -39,15 -73,26 -35,10 -68,27 -73,37 -5,9 -15,17 -22,17 -27,0 -127,125 -127,158 0,11 -7,25 -15,32 -12,10 -15,36 -15,117 0,83 3,105 15,109 9,4 15,19 15,41 0,37 50,113 74,113 6,0 17,14 23,30 9,24 17,30 41,30 17,0 32,6 36,15 3,9 18,15 35,15 19,0 30,6 33,18 4,15 12,18 37,14 17,-2 57,-1 89,3 l 57,8 -35,9 c -62,17 -84,17 -130,4 z"
       id="path10" />
    <path
       d="m 7262,5738 c 3,-7 16,-14 31,-16 14,-2 31,-10 37,-18 7,-8 17,-14 22,-14 5,0 29,-20 54,-45 41,-42 62,-53 77,-39 11,11 -86,106 -128,125 -47,22 -99,25 -93,7 z"
       id="path11" />
    <path
       d="m 7143,5625 c -11,-14 -27,-38 -35,-55 -15,-35 -27,-38 -51,-10 -22,26 -63,26 -77,1 -12,-23 -3,-76 19,-111 37,-60 96,-120 118,-120 33,0 40,21 12,39 -33,21 -89,82 -89,97 0,6 -7,14 -15,18 -17,6 -20,42 -5,51 14,9 37,-11 53,-44 21,-43 44,-39 51,11 8,52 45,101 72,96 23,-4 31,-43 13,-64 -9,-11 -9,-18 -1,-26 19,-19 40,11 47,68 l 7,50 -40,12 c -52,16 -54,16 -79,-13 z"
       id="path12" />
    <path
       d="m 7484,5565 c -3,-8 3,-31 15,-50 12,-20 21,-43 21,-52 0,-9 12,-27 26,-40 l 26,-24 -6,35 c -9,48 -53,146 -66,146 -6,0 -13,-7 -16,-15 z"
       id="path13" />
    <path
       d="m 3497,5538 c -41,-57 -55,-144 -67,-420 -6,-141 -8,-308 -4,-372 8,-134 0,-162 -55,-200 -44,-31 -62,-32 -86,-7 -17,20 -17,42 1,143 5,30 3,38 -15,47 -16,9 -26,8 -43,-3 -16,-10 -28,-12 -38,-6 -24,16 -94,11 -120,-7 -51,-36 -63,-49 -86,-98 -38,-79 -32,-135 17,-160 60,-31 114,-13 159,53 20,31 30,38 39,29 6,-6 11,-17 11,-23 0,-21 51,-54 82,-54 34,0 102,41 118,71 15,27 28,14 32,-31 l 3,-35 83,-8 c 75,-7 86,-6 118,14 19,11 42,33 51,46 18,28 91,63 128,63 19,0 26,-8 34,-36 16,-59 47,-84 101,-84 34,0 52,5 65,20 30,33 45,25 45,-22 0,-37 -7,-50 -50,-98 -65,-72 -151,-197 -161,-235 -4,-16 -14,-48 -23,-70 -16,-42 -21,-130 -10,-183 4,-17 21,-48 39,-69 29,-34 36,-37 87,-37 42,-1 61,4 78,19 72,65 100,182 100,424 0,157 1,166 25,207 14,23 42,55 63,71 66,48 122,102 122,118 0,34 -45,13 -111,-50 -76,-74 -105,-84 -95,-32 4,17 10,62 13,98 7,77 -6,109 -43,109 -29,0 -44,-31 -44,-89 0,-21 -6,-54 -14,-72 -15,-35 -68,-75 -86,-64 -20,13 -31,83 -19,124 16,54 7,71 -36,71 -29,0 -37,-5 -45,-25 -11,-29 -65,-65 -97,-65 -18,0 -23,6 -23,24 0,32 -34,90 -65,110 -31,20 -97,21 -135,1 -41,-21 -45,-4 -13,57 44,84 100,281 119,418 3,19 9,66 15,103 11,82 -4,185 -33,222 -15,20 -28,25 -63,25 -38,0 -47,-4 -68,-32 z m 96,-79 c 8,-57 -4,-210 -27,-344 -8,-44 -21,-117 -29,-163 -27,-157 -41,-115 -34,101 11,320 35,476 72,464 5,-2 14,-28 18,-58 z m 36,-765 c 22,-18 31,-35 31,-55 0,-25 -6,-32 -37,-45 -21,-8 -46,-19 -55,-24 -22,-13 -45,-13 -53,-1 -10,17 16,105 37,128 27,29 40,29 77,-3 z m -444,-28 c 19,-14 19,-15 2,-33 -9,-11 -17,-24 -17,-29 0,-16 -91,-114 -105,-114 -26,0 -37,37 -24,78 29,91 94,135 144,98 z m 448,-123 c 12,-11 -25,-43 -50,-43 -23,0 -23,1 -7,25 16,24 43,33 57,18 z m 423,-300 c -3,-27 -10,-91 -15,-143 -17,-185 -49,-290 -86,-290 -26,0 -65,71 -65,119 0,53 27,159 47,182 7,8 13,21 13,28 0,35 74,151 97,151 12,0 14,-9 9,-47 z"
       id="path14" />
    <path
       d="m 6267,5523 c -12,-11 -8,-431 4,-438 20,-13 24,8 24,135 0,90 4,133 13,141 16,17 15,44 -3,59 -10,8 -15,30 -15,61 0,46 -7,59 -23,42 z"
       id="path15" />
    <path
       d="m 5969,5499 c -31,-31 -60,-105 -76,-194 -20,-107 -29,-601 -13,-705 20,-133 71,-200 150,-200 39,0 93,38 115,81 19,36 34,37 65,4 13,-14 32,-25 43,-25 28,0 78,33 105,69 41,56 22,70 -28,21 -62,-61 -96,-29 -85,81 8,74 -1,99 -36,99 -25,0 -32,-16 -40,-88 -6,-54 -13,-71 -51,-120 -40,-52 -48,-57 -83,-57 -34,0 -40,4 -58,38 -14,27 -20,59 -20,115 -1,77 1,84 54,184 5,10 9,26 9,36 0,9 6,26 14,37 13,20 21,51 56,245 21,117 25,246 10,302 -14,51 -56,98 -86,98 -13,0 -33,-9 -45,-21 z m 76,-204 c 0,-86 -6,-176 -14,-210 -7,-33 -19,-91 -28,-130 -8,-38 -21,-86 -28,-105 -8,-19 -16,-46 -17,-60 -2,-14 -7,-23 -13,-20 -27,14 26,617 58,668 5,7 16,12 25,10 15,-3 17,-22 17,-153 z"
       id="path16" />
    <path
       d="m 7183,5456 c -13,-13 -23,-31 -23,-39 0,-31 18,-26 39,9 34,57 25,73 -16,30 z"
       id="path17" />
    <path
       d="m 7557,5374 c -4,-4 -7,-17 -7,-29 0,-13 -7,-28 -15,-35 -8,-7 -15,-21 -15,-30 0,-10 -6,-31 -14,-47 -8,-15 -19,-40 -25,-55 -5,-15 -34,-45 -64,-67 -64,-47 -108,-101 -82,-101 26,0 96,49 113,81 10,16 20,29 25,29 10,0 47,38 47,49 0,5 7,14 15,21 8,7 15,28 15,48 0,19 6,43 14,51 22,25 27,56 13,75 -7,9 -16,14 -20,10 z"
       id="path18" />
    <path
       d="m 7224,5345 c -3,-7 -4,-32 -2,-56 2,-31 7,-44 18,-44 9,0 15,9 15,22 0,25 39,58 56,47 6,-3 9,-19 5,-35 -7,-38 -2,-37 24,6 34,56 26,69 -48,71 -45,2 -65,-1 -68,-11 z"
       id="path19" />
    <path
       d="m 7766,5203 c -4,-16 -5,-67 -4,-115 3,-100 -3,-111 -63,-114 -22,-1 -48,-9 -58,-18 -10,-9 -35,-16 -59,-16 -43,0 -59,-21 -26,-34 21,-8 91,4 123,21 14,7 35,13 46,13 11,0 29,10 41,23 18,19 21,35 23,139 1,111 -10,161 -23,101 z"
       id="path20" />
    <path
       d="m 6296,5013 c -13,-13 -5,-39 17,-53 48,-31 115,-41 330,-47 152,-4 217,-3 217,5 0,18 -17,23 -80,26 -32,2 -65,8 -73,14 -9,7 -74,12 -185,12 -155,1 -173,3 -182,20 -10,19 -35,32 -44,23 z"
       id="path21" />
    <path
       d="m 6206,4858 c -21,-32 -10,-68 20,-68 45,0 61,82 17,88 -14,2 -27,-5 -37,-20 z"
       id="path22" />
    <path
       d="m 6393,4730 c -39,-23 -52,-63 -30,-88 8,-9 17,-26 19,-37 2,-12 13,-21 26,-23 31,-5 28,-32 -8,-64 -36,-31 -39,-69 -8,-98 31,-29 81,-26 113,6 22,22 26,34 23,71 -3,42 0,47 38,79 l 42,35 28,-24 28,-25 -37,-41 c -20,-23 -37,-48 -37,-56 0,-28 52,-65 93,-65 31,0 40,5 58,33 18,29 19,46 7,96 -2,7 24,28 57,46 74,41 87,74 25,65 -8,-1 -31,-15 -51,-31 -20,-16 -44,-29 -53,-29 -20,0 -78,78 -74,99 2,11 15,16 38,16 25,0 36,5 38,17 5,24 -52,38 -97,24 -38,-12 -50,-35 -43,-88 4,-33 1,-38 -16,-38 -11,0 -25,-7 -32,-15 -7,-8 -24,-15 -39,-15 -21,0 -31,10 -53,49 -16,27 -28,51 -28,54 0,3 17,7 37,9 47,4 53,22 14,42 -38,20 -39,20 -78,-4 z m 75,-244 c 5,-24 -10,-38 -31,-30 -20,7 -22,25 -5,42 16,16 32,10 36,-12 z m 222,-5 c 0,-11 -5,-23 -11,-27 -15,-9 -33,12 -26,30 9,23 37,20 37,-3 z"
       id="path23" />
    <path
       d="m 7135,4722 c -32,-11 -51,-26 -64,-50 -18,-34 24,-72 79,-72 33,0 40,-3 40,-20 0,-24 -41,-28 -60,-5 -16,19 -44,19 -59,1 -10,-11 -7,-19 10,-35 31,-29 137,-30 162,-3 19,21 23,67 7,77 -6,4 -8,21 -4,40 6,31 3,35 -35,54 -43,22 -45,23 -76,13 z m 69,-58 c 29,-11 17,-24 -23,-24 -38,0 -57,10 -44,24 8,8 46,8 67,0 z"
       id="path24" />
    <path
       d="m 8065,4713 c -71,-38 -87,-108 -37,-164 25,-28 33,-31 82,-31 48,1 58,5 83,32 52,58 31,132 -48,164 -45,19 -43,19 -80,-1 z m 86,-70 c 16,-43 -2,-73 -45,-73 -40,0 -61,27 -50,63 9,28 22,37 57,37 21,0 30,-7 38,-27 z"
       id="path25" />
    <path
       d="m 7278,4702 c -13,-15 -2,-28 27,-34 17,-3 20,-12 23,-73 3,-71 14,-91 42,-75 11,6 15,26 15,76 0,66 1,67 29,75 16,5 33,6 38,3 4,-3 8,-29 8,-58 0,-69 27,-97 95,-98 63,-1 83,20 95,102 10,69 0,103 -28,98 -14,-3 -18,-17 -20,-71 -3,-62 -5,-67 -27,-73 -45,-11 -55,0 -55,65 0,51 -3,62 -21,71 -15,8 -24,8 -34,0 -8,-7 -20,-8 -26,-4 -22,13 -149,11 -161,-4 z"
       id="path26" />
    <path
       d="m 7708,4706 c -9,-8 -13,-43 -13,-97 v -84 l 66,-3 c 58,-3 68,0 92,22 22,21 27,34 27,76 0,60 -23,90 -72,91 -18,0 -45,2 -60,4 -16,2 -34,-2 -40,-9 z m 122,-68 c 14,-26 13,-29 -5,-47 -19,-18 -42,-25 -72,-22 -14,1 -19,82 -6,95 17,17 68,1 83,-26 z"
       id="path27" />
    <path
       d="m 7927,4707 c -15,-10 -17,-26 -15,-97 3,-85 3,-85 31,-88 l 28,-3 -3,97 c -3,100 -10,115 -41,91 z"
       id="path28" />
    <path
       d="m 3606,4175 c -17,-17 -52,-20 -61,-5 -9,14 -42,12 -48,-2 -3,-10 -9,-10 -27,0 -27,16 -151,10 -329,-15 -87,-12 -118,-13 -132,-5 -10,7 -50,12 -88,12 -60,0 -74,-3 -98,-25 l -28,-24 26,-1 c 15,0 32,-7 39,-16 11,-12 31,-14 109,-10 53,2 135,12 182,20 63,12 93,14 113,6 40,-15 87,-12 108,6 15,15 18,15 23,2 5,-13 29,-16 123,-17 64,-1 147,1 184,5 63,6 69,9 83,37 8,17 14,31 13,32 -2,1 -42,5 -90,9 -70,5 -89,3 -102,-9 z"
       id="path29" />
    <path
       d="m 4253,4174 c -39,-17 -44,-44 -9,-44 13,0 26,-7 30,-15 6,-16 61,-21 70,-6 3,4 32,9 63,10 66,1 113,17 113,38 0,20 -29,28 -51,15 -25,-16 -89,-14 -119,3 -31,18 -56,17 -97,-1 z"
       id="path30" />
    <path
       d="m 5822,4181 c -81,-7 -101,-16 -102,-48 0,-12 19,-17 102,-28 33,-4 56,-1 77,9 37,20 133,21 169,2 20,-10 86,-14 269,-15 220,-1 243,0 252,16 8,15 13,15 33,5 12,-6 75,-13 138,-15 63,-2 124,-9 136,-15 11,-6 63,-11 115,-11 383,0 545,-2 615,-7 52,-4 84,-2 88,4 10,17 -24,30 -65,25 -25,-4 -45,0 -60,11 -31,21 -88,21 -104,-1 -13,-17 -14,-17 -32,0 -17,15 -43,17 -215,17 -154,0 -202,3 -224,15 -38,20 -147,20 -164,1 -9,-12 -18,-13 -38,-5 -73,29 -372,49 -398,28 -19,-16 -99,-12 -128,6 -24,14 -173,18 -182,4 -3,-5 -13,-5 -24,1 -26,14 -113,13 -128,-2 -9,-9 -15,-9 -24,0 -7,7 -14,11 -17,10 -4,0 -43,-4 -89,-7 z"
       id="path31" />
  </g>
</svg>
