<svg version="1.0" xmlns="http://www.w3.org/2000/svg" preserveAspectRatio="xMidYMid meet" viewBox="0.96 0.62 448.3 333.23">
<g transform="translate(0.000000,431.000000) scale(0.100000,-0.100000)" fill="#000000" stroke="none">
<path d="M1680 4300 c-261 -14 -239 -7 -280 -84 -12 -23 -30 -34 -83 -52 -102 -33 -185 -97 -247 -187 -32 -46 -74 -73 -145 -92 -69 -18 -101 -19 -110 -5 -14 22 -93 54 -140 56 -56 3 -96 -9 -140 -41 -26 -19 -55 -25 -208 -38 -255 -23 -300 -49 -315 -179 -7 -64 3 -1227 12 -1419 5 -100 8 -111 42 -170 112 -192 347 -308 564 -279 110 15 179 39 263 94 65 41 86 65 89 99 1 15 9 29 17 32 36 14 347 17 478 5 112 -10 164 -10 285 1 83 7 143 16 136 21 -7 4 -88 8 -181 8 -272 0 -323 23 -406 188 -26 53 -69 138 -95 187 -74 144 -100 264 -100 450 0 127 5 182 24 255 6 25 15 63 20 85 9 41 35 147 50 200 20 70 32 204 27 293 l-6 94 32 32 c66 66 171 125 276 155 54 15 111 35 126 45 33 22 62 69 77 124 9 29 17 41 26 37 7 -3 82 -6 165 -6 125 -2 140 -3 82 -9 -127 -13 -145 -30 -145 -134 l0 -66 -42 -21 c-159 -80 -281 -238 -343 -444 -46 -154 -54 -187 -75 -290 -33 -165 -45 -353 -32 -501 7 -71 16 -142 21 -159 89 -281 126 -357 217 -443 43 -42 134 -62 205 -45 l44 11 -61 1 c-117 2 -171 38 -241 160 -71 122 -118 287 -132 459 -10 125 -1 334 19 427 69 325 82 367 124 413 16 17 33 32 37 32 5 0 27 13 51 28 65 43 143 71 253 93 98 19 295 27 295 12 0 -15 -155 -52 -233 -57 -43 -2 -85 -10 -93 -16 -8 -7 -14 -10 -14 -7 0 10 -81 -28 -124 -57 -94 -64 -186 -171 -186 -217 0 -21 6 -18 53 31 67 70 128 119 197 157 83 46 114 51 50 8 -120 -81 -286 -280 -321 -386 -7 -19 -15 -38 -20 -44 -16 -21 -50 -184 -55 -265 -6 -85 1 -141 30 -258 26 -102 113 -250 181 -307 19 -16 48 -43 63 -60 145 -157 227 -221 373 -292 43 -21 79 -42 79 -47 0 -4 17 -31 37 -60 110 -150 214 -241 358 -314 37 -18 73 -47 95 -73 19 -24 42 -52 50 -62 31 -38 193 -169 273 -221 237 -155 450 -226 642 -213 99 6 125 12 195 39 144 57 259 168 307 298 18 47 20 74 18 195 -1 77 -7 180 -13 230 -17 152 7 261 74 332 99 106 160 177 178 210 86 152 109 319 71 518 -6 35 -11 46 -56 138 -18 37 -45 80 -59 95 -64 72 -101 120 -127 167 -24 43 -28 61 -28 130 0 82 17 175 41 232 33 74 0 148 -97 221 -9 7 -49 22 -88 32 -88 25 -285 27 -376 4 -33 -8 -105 -19 -160 -24 -346 -31 -435 -41 -478 -51 -47 -11 -83 -7 -73 9 10 17 -45 147 -76 179 -40 41 -82 49 -172 33 -39 -6 -84 -13 -101 -14 l-30 -1 0 65 c0 81 -26 137 -76 162 -19 10 -44 29 -56 43 -12 14 -25 25 -29 25 -3 0 -19 11 -35 24 -21 18 -45 26 -91 30 -117 10 -472 13 -628 6z m-40 -58 l95 -17 -3 -29 c-5 -48 -48 -103 -103 -132 -15 -7 -57 -18 -94 -24 -79 -13 -148 -43 -249 -111 -94 -63 -113 -96 -96 -167 6 -28 9 -68 5 -89 l-6 -38 -57 4 c-74 4 -181 -15 -210 -39 -13 -10 -25 -29 -27 -41 -7 -35 -22 -45 -87 -62 -92 -23 -115 -27 -195 -29 -40 -1 -73 -4 -73 -8 0 -16 75 -30 157 -30 63 0 108 6 149 20 32 11 61 20 64 20 3 0 4 -105 2 -232 -3 -205 7 -617 23 -998 3 -69 10 -149 16 -178 10 -50 9 -56 -12 -78 -23 -25 -143 -86 -194 -99 -156 -40 -301 -27 -430 37 -79 40 -107 60 -163 121 -26 27 -52 55 -58 61 -28 29 -43 76 -43 137 2 806 13 1468 24 1495 16 38 70 65 150 75 33 4 87 13 120 19 33 6 87 14 120 16 33 3 80 12 105 20 60 21 134 20 195 -1 30 -11 82 -18 130 -18 115 -1 133 9 275 158 54 57 81 76 158 111 92 43 104 55 114 110 2 11 8 22 13 26 16 12 83 8 185 -10z m223 1 c-13 -2 -33 -2 -45 0 -13 2 -3 4 22 4 25 0 35 -2 23 -4z m500 -40 c-34 -2 -93 -2 -130 0 -37 2 -9 3 62 3 72 0 102 -1 68 -3z m138 -75 c43 -24 57 -44 65 -99 7 -39 6 -42 -12 -34 -10 5 -163 11 -339 13 l-321 3 2 27 c1 15 3 37 3 50 1 12 10 31 21 42 19 19 33 20 282 19 241 -1 266 -3 299 -21z m-31 -159 c47 -5 88 -16 92 -22 5 -7 7 -51 6 -98 -3 -71 0 -90 15 -106 9 -11 17 -23 17 -27 0 -10 -200 0 -260 12 -137 29 -174 34 -270 35 -119 0 -168 -6 -258 -35 -72 -23 -141 -58 -192 -97 -66 -52 -66 -52 -7 67 32 63 127 163 201 211 l64 42 134 10 c298 20 354 21 458 8z m272 -58 c87 -1 99 -3 118 -23 31 -34 92 -150 83 -158 -19 -17 -134 -35 -213 -33 -84 2 -85 3 -118 39 -28 29 -33 41 -29 67 3 18 9 51 12 74 6 37 10 42 28 39 12 -3 66 -5 119 -5z m1305 -132 c62 -15 100 -34 141 -73 l33 -31 -6 -90 c-7 -101 -16 -144 -51 -226 -17 -39 -24 -76 -24 -119 0 -69 5 -81 96 -208 66 -91 107 -191 130 -309 17 -88 17 -96 0 -185 -27 -142 -70 -225 -176 -338 -115 -122 -144 -198 -120 -310 33 -154 31 -313 -5 -470 -25 -115 -109 -190 -275 -250 -56 -21 -84 -24 -205 -24 -126 -1 -149 2 -235 28 -52 16 -99 32 -105 36 -5 3 -32 15 -60 25 -27 10 -62 26 -77 36 -14 11 -28 19 -31 19 -9 0 -151 83 -183 107 -17 13 -34 23 -39 23 -31 0 -290 257 -299 297 -14 65 -27 130 -31 153 -2 14 -9 55 -15 92 -17 104 -12 109 45 42 27 -33 65 -70 85 -83 50 -35 160 -92 195 -103 155 -45 329 -17 460 74 52 36 58 40 96 58 32 14 133 110 177 166 46 60 106 180 135 270 164 512 -50 1029 -469 1138 -34 9 -72 16 -85 16 -36 0 136 85 196 97 24 4 45 23 27 23 -17 0 -138 -38 -182 -57 -119 -52 -284 -142 -318 -173 -12 -11 -24 -20 -28 -20 -13 0 -99 -74 -175 -150 -74 -75 -139 -158 -139 -179 0 -6 -4 -11 -10 -11 -5 0 -15 -18 -21 -40 -7 -22 -15 -40 -18 -40 -11 0 1 134 12 150 26 35 237 216 317 271 47 32 90 63 97 69 7 5 51 31 99 56 121 64 115 61 154 77 19 8 55 24 80 35 25 11 81 32 125 46 44 15 89 31 100 36 38 16 120 39 165 45 25 4 72 10 105 15 73 11 246 4 312 -11z m-592 -38 c-6 -6 -41 -17 -80 -25 -82 -19 -72 -16 -156 -44 -155 -53 -421 -209 -530 -312 -9 -8 -25 -22 -35 -31 -31 -26 -128 -131 -157 -170 -21 -28 -28 -50 -32 -105 -2 -38 -10 -98 -16 -134 -6 -36 -14 -103 -19 -150 -5 -47 -14 -119 -20 -160 -19 -118 -21 -491 -4 -575 8 -38 17 -86 20 -105 8 -49 67 -188 96 -225 49 -62 98 -142 98 -159 0 -8 -33 9 -52 26 -7 7 -32 26 -54 41 -62 42 -184 172 -242 258 -43 65 -73 122 -122 234 -10 23 -42 132 -46 155 -1 8 -9 53 -18 100 -20 108 -20 252 0 360 9 47 17 92 18 100 20 121 105 315 200 453 94 137 249 278 386 353 19 10 42 25 51 32 9 7 38 13 65 14 27 0 57 5 68 10 10 6 104 19 210 30 105 11 216 24 246 28 85 11 135 11 125 1z m-1015 -52 c12 -7 11 -8 -5 -9 -45 0 -96 13 -83 21 14 9 63 3 88 -12z m-80 -10 c25 -6 70 -8 100 -5 40 5 51 3 40 -4 -11 -8 -2 -9 35 -6 38 4 43 3 20 -3 -16 -5 -62 -20 -102 -33 -43 -15 -77 -22 -85 -17 -7 5 -24 8 -38 8 -21 -1 -19 -2 10 -11 30 -9 32 -11 15 -18 -11 -4 -26 -5 -34 -2 -9 3 -12 1 -8 -5 8 -13 -62 -52 -82 -45 -8 2 -11 0 -7 -6 3 -5 -9 -21 -27 -35 -56 -42 -124 -115 -163 -175 -20 -31 -47 -70 -58 -87 -11 -16 -39 -77 -63 -135 -25 -62 -47 -104 -54 -102 -9 2 -10 0 -1 -11 8 -10 9 -23 1 -48 -57 -194 -45 -472 30 -644 36 -84 62 -130 108 -192 50 -68 59 -87 30 -63 -7 5 -39 31 -72 57 -96 77 -188 175 -248 266 -62 92 -83 163 -93 304 -5 67 -4 72 13 68 10 -3 8 0 -5 6 -13 7 -21 18 -17 27 3 7 5 31 5 53 0 32 3 37 18 33 12 -4 13 -3 4 3 -7 5 -13 25 -13 44 -2 46 28 171 54 228 12 25 22 48 22 51 1 3 9 22 18 44 9 21 17 41 17 43 0 3 20 33 44 67 52 72 236 251 236 229 0 -3 8 3 18 14 19 23 90 63 110 63 7 0 22 9 34 20 12 10 24 17 28 15 5 -3 23 2 41 10 19 8 43 12 54 9 11 -3 40 -10 65 -15z m310 -42 c-82 -40 -221 -120 -217 -124 2 -1 -35 -42 -82 -90 -133 -135 -230 -297 -291 -483 -42 -129 -73 -341 -66 -445 6 -79 36 -257 51 -304 7 -19 5 -23 -6 -17 -8 4 -6 1 3 -7 10 -8 15 -16 12 -19 -2 -3 15 -45 40 -94 24 -49 42 -91 39 -94 -14 -14 -117 121 -168 223 -50 99 -55 112 -39 117 17 6 16 7 -2 12 -12 3 -24 21 -33 52 -7 26 -11 49 -9 52 3 2 17 0 32 -5 14 -6 26 -8 26 -5 0 3 -13 10 -29 15 -25 9 -32 19 -41 62 -7 29 -10 68 -8 88 l3 37 37 -15 c20 -8 39 -22 41 -31 3 -10 5 4 6 31 0 26 -3 47 -8 47 -4 0 -6 -11 -3 -25 5 -30 3 -30 -43 -8 -22 11 -35 24 -35 36 0 14 4 17 18 12 38 -15 45 -15 15 1 -30 16 -33 21 -33 67 l0 49 38 -6 c36 -6 36 -6 12 8 -14 8 -28 12 -32 10 -9 -6 -10 18 -2 40 4 11 14 14 33 11 l26 -5 -27 11 c-35 14 -35 25 3 143 l32 97 33 -6 c42 -6 45 2 4 12 l-30 8 38 75 c49 97 85 152 147 218 96 104 268 212 337 212 21 0 28 3 20 8 -9 6 -6 12 13 20 15 7 25 8 25 2 0 -6 8 -10 18 -9 12 0 13 2 3 6 -29 11 52 42 109 42 l55 0 -65 -32z m1567 -34 c-4 -3 -7 0 -7 7 0 7 3 10 7 7 3 -4 3 -10 0 -14z m-3057 -32 c0 -36 -38 -204 -60 -261 -5 -14 -11 -38 -14 -55 -3 -16 -10 -46 -15 -65 -18 -65 -20 -75 -32 -183 -14 -122 -3 -250 33 -392 17 -69 72 -198 98 -230 4 -5 33 -59 64 -119 31 -60 66 -121 77 -135 l21 -26 -129 -6 c-138 -7 -162 -10 -207 -28 -16 -6 -31 -10 -33 -7 -2 2 -4 109 -4 238 1 252 -12 641 -29 943 -17 275 -16 281 4 304 10 11 41 27 69 35 46 14 70 18 140 24 13 2 17 -6 17 -37z m2000 -60 c78 -22 195 -81 243 -124 l32 -28 -42 20 c-125 61 -278 86 -363 60 -77 -23 -146 -55 -207 -95 -78 -52 -73 -59 9 -14 133 71 247 94 348 68 96 -25 204 -92 283 -178 80 -86 115 -160 139 -295 18 -99 19 -120 8 -210 -21 -164 -53 -298 -92 -375 -33 -67 -142 -215 -184 -253 -21 -17 -42 -37 -48 -42 -25 -24 -156 -93 -218 -115 -70 -25 -93 -47 -35 -35 92 19 202 66 282 120 37 25 134 117 135 128 0 4 12 20 26 35 63 66 122 191 159 337 19 76 21 87 34 220 9 83 9 79 6 -55 -4 -150 -30 -287 -71 -370 -51 -103 -213 -275 -333 -355 -184 -121 -347 -134 -541 -44 -80 37 -132 72 -185 124 -76 76 -81 92 -76 230 2 63 4 67 13 40 32 -89 142 -209 229 -251 77 -36 112 -45 200 -51 181 -12 345 72 474 242 43 57 113 210 134 294 55 222 1 470 -134 607 -96 97 -193 135 -339 133 -55 -1 -112 -6 -126 -11 -64 -26 -77 -32 -114 -51 -57 -29 -137 -101 -194 -173 -26 -32 -95 -174 -89 -181 2 -2 17 22 33 54 51 105 265 296 311 278 9 -3 11 0 7 7 -5 7 1 9 20 6 15 -3 24 -3 21 0 -10 10 78 32 131 32 57 0 159 -30 219 -65 79 -46 174 -173 190 -254 33 -161 38 -202 28 -253 l-10 -53 -3 75 c-2 84 -9 114 -27 118 -16 3 -18 -54 -3 -63 6 -3 7 1 4 9 -3 9 -1 16 5 16 6 0 11 -11 11 -25 0 -14 -4 -25 -10 -25 -5 0 -10 -20 -10 -45 0 -25 5 -45 10 -45 6 0 10 -5 10 -11 0 -6 -7 -9 -15 -5 -16 6 -22 -34 -17 -115 2 -29 -2 -38 -17 -42 -11 -3 -22 0 -24 7 -2 6 -2 -2 -1 -19 2 -16 1 -24 -2 -17 -5 10 -9 9 -20 -5 -19 -25 -17 -42 3 -18 15 20 15 20 10 -2 -8 -33 0 -28 19 12 9 20 19 34 21 31 7 -6 -34 -90 -69 -143 -15 -23 -28 -45 -28 -48 0 -7 -80 -86 -120 -119 -13 -10 -53 -33 -89 -50 -63 -29 -72 -31 -186 -31 -115 0 -123 1 -191 33 -111 52 -215 171 -256 293 -9 25 -14 57 -11 70 2 13 8 69 12 124 l8 100 2 -99 c0 -55 4 -96 8 -92 10 9 10 196 0 196 -4 0 -5 75 -1 168 6 143 9 172 27 202 58 98 191 234 327 333 79 59 216 144 233 146 4 1 39 -8 77 -18z m-1341 -18 c-8 -10 -17 -20 -20 -23 -36 -30 -212 -351 -223 -407 -1 -10 -5 -25 -8 -33 -27 -79 -31 -110 -33 -229 -2 -127 5 -205 20 -243 4 -10 3 -18 -2 -18 -13 0 -43 125 -52 215 -10 101 16 299 47 362 5 10 24 50 43 88 46 96 77 140 160 229 65 70 101 100 68 59z m2361 -303 c7 -22 19 -45 27 -51 7 -6 13 -16 13 -21 0 -12 -19 7 -48 49 -12 17 -22 41 -22 53 0 31 14 17 30 -30z m160 -237 c0 -7 4 -13 8 -13 10 0 45 -84 63 -150 7 -25 13 -94 13 -155 0 -87 -4 -125 -23 -185 -36 -118 -66 -164 -191 -297 -33 -35 -60 -68 -60 -73 0 -6 -4 -10 -9 -10 -5 0 -19 -25 -32 -55 -22 -50 -39 -70 -39 -45 0 33 63 124 145 209 140 147 185 248 192 435 6 141 -27 258 -110 391 -17 28 -16 28 12 -5 17 -19 31 -40 31 -47z m-1893 -170 c-2 -16 -4 -5 -4 22 0 28 2 40 4 28 2 -13 2 -35 0 -50z m0 -40 c-4 -3 -10 -3 -14 0 -3 4 0 7 7 7 7 0 10 -3 7 -7z m-10 -65 c-2 -13 -4 -5 -4 17 -1 22 1 32 4 23 2 -10 2 -28 0 -40z m1033 -93 c0 -8 -9 -29 -20 -47 -11 -18 -20 -26 -20 -18 0 9 7 26 16 39 14 19 14 25 3 32 -11 7 -10 9 4 9 9 0 17 -7 17 -15z m-1903 -72 c-4 -3 -7 0 -7 7 0 7 3 10 7 7 3 -4 3 -10 0 -14z m860 -475 c-3 -7 -5 -2 -5 12 0 14 2 19 5 13 2 -7 2 -19 0 -25z m23 -70 c0 -10 -4 -18 -10 -18 -5 0 -10 15 -10 33 0 24 3 28 10 17 5 -8 10 -23 10 -32z m-3 -50 c-3 -8 -6 -5 -6 6 -1 11 2 17 5 13 3 -3 4 -12 1 -19z m23 -44 c0 -8 -4 -12 -10 -9 -5 3 -10 13 -10 21 0 8 5 12 10 9 6 -3 10 -13 10 -21z m300 -429 c41 -33 77 -62 80 -66 25 -33 334 -219 365 -219 6 0 27 -7 45 -16 18 -9 49 -21 69 -26 20 -5 54 -14 76 -20 67 -18 271 -14 340 6 145 43 268 124 309 204 9 18 19 32 22 32 3 0 3 -3 1 -7 -2 -5 -12 -26 -22 -47 -57 -126 -218 -234 -384 -258 -128 -19 -287 7 -431 69 -188 81 -406 228 -523 352 -75 80 -113 138 -56 85 19 -17 68 -57 109 -89z"/> <path d="M863 3790 c-16 -39 -48 -62 -99 -71 -58 -11 -174 6 -222 32 -41 24 -57 15 -22 -12 33 -25 147 -59 196 -58 86 1 174 64 161 116 -3 15 -6 14 -14 -7z"/>
<path d="M942 3776 c23 -45 5 -91 -49 -122 -34 -21 -61 -27 -135 -31 -156 -9 -328 32 -384 92 -18 19 -24 22 -24 10 0 -44 68 -98 160 -128 73 -24 105 -29 208 -29 110 0 181 19 225 60 51 48 55 129 8 161 l-24 15 15 -28z"/> <path d="M3750 3751 c-116 -17 -228 -42 -295 -67 -38 -14 -54 -23 -35 -19 19 4 53 9 75 11 22 3 56 9 75 14 64 17 270 32 378 28 123 -4 183 -27 233 -88 17 -20 29 -28 29 -20 0 29 -61 89 -118 116 -51 24 -70 28 -172 30 -63 1 -140 -1 -170 -5z"/>
<path d="M3810 3053 c20 -79 26 -445 8 -510 -5 -21 -13 -54 -18 -73 -22 -91 -55 -183 -95 -265 -37 -77 -97 -179 -115 -195 -3 -3 -18 -23 -35 -45 -51 -69 -177 -184 -260 -239 -172 -112 -331 -156 -518 -142 -50 3 -87 3 -83 -1 3 -4 12 -8 19 -10 7 -1 30 -7 52 -12 52 -14 208 -13 265 0 25 6 52 12 61 14 67 14 308 142 329 175 3 5 23 22 44 39 97 77 234 260 296 395 44 97 86 232 101 323 16 99 16 330 0 408 -7 33 -14 67 -15 75 -4 29 -40 130 -46 130 -4 0 1 -30 10 -67z"/>
<path d="M3793 2760 c0 -25 2 -35 4 -22 2 12 2 32 0 45 -2 12 -4 2 -4 -23z"/>
<path d="M3782 2605 c0 -16 2 -22 5 -12 2 9 2 23 0 30 -3 6 -5 -1 -5 -18z"/>
<path d="M3763 2495 c-6 -19 -8 -35 -3 -35 8 0 23 60 17 67 -2 1 -8 -13 -14 -32z"/>
<path d="M3741 2414 c0 -11 3 -14 6 -6 3 7 2 16 -1 19 -3 4 -6 -2 -5 -13z"/>
<path d="M3725 2363 c-3 -15 -23 -61 -42 -103 -48 -99 -48 -99 -25 -70 11 13 20 27 19 30 0 3 12 32 27 64 28 62 42 106 33 106 -3 0 -8 -12 -12 -27z"/>
<path d="M3611 2138 c-8 -13 -21 -34 -29 -48 l-14 -25 21 25 c53 61 59 70 43 70 -4 0 -13 -10 -21 -22z"/>
<path d="M3530 2025 c-19 -19 -29 -35 -24 -35 11 0 45 34 58 58 12 21 1 14 -34 -23z"/>
<path d="M3485 1972 c-5 -4 -19 -18 -30 -32 -16 -21 -14 -20 13 4 29 27 37 36 30 36 -2 0 -7 -4 -13 -8z"/>
<path d="M3395 1890 c-16 -17 -25 -30 -21 -30 11 0 61 49 55 55 -3 2 -18 -9 -34 -25z"/>
<path d="M3344 1848 c-4 -7 -3 -8 4 -4 7 4 12 9 12 12 0 8 -9 4 -16 -8z"/>
<path d="M3303 1825 c-12 -9 -48 -29 -80 -45 -32 -16 -53 -29 -48 -29 9 0 28 9 132 62 13 7 23 15 23 20 0 10 -2 9 -27 -8z"/>
<path d="M2615 1790 c3 -5 8 -10 11 -10 3 0 2 5 -1 10 -3 6 -8 10 -11 10 -3 0 -2 -4 1 -10z"/>
<path d="M2713 1753 c4 -3 10 -3 14 0 3 4 0 7 -7 7 -7 0 -10 -3 -7 -7z"/>
<path d="M2853 1733 c26 -2 68 -2 95 0 26 2 4 3 -48 3 -52 0 -74 -1 -47 -3z"/>
<path d="M3113 1723 c4 -3 10 -3 14 0 3 4 0 7 -7 7 -7 0 -10 -3 -7 -7z"/>
<path d="M3083 1713 c4 -3 10 -3 14 0 3 4 0 7 -7 7 -7 0 -10 -3 -7 -7z"/>
<path d="M3015 1700 c-16 -7 -17 -9 -3 -9 9 -1 20 4 23 9 7 11 7 11 -20 0z"/>
<path d="M2285 3659 c60 -14 135 -21 110 -10 -11 4 -49 11 -85 14 -55 5 -59 5 -25 -4z"/>
<path d="M2193 3633 c4 -3 10 -3 14 0 3 4 0 7 -7 7 -7 0 -10 -3 -7 -7z"/>
<path d="M2235 3630 c19 -8 73 -14 64 -6 -2 2 -22 6 -44 9 -28 5 -34 4 -20 -3z"/>
<path d="M2135 3610 c11 -5 36 -8 55 -8 l35 0 -30 8 c-16 4 -41 8 -55 8 -23 1 -23 0 -5 -8z"/>
<path d="M2263 3593 c4 -3 10 -3 14 0 3 4 0 7 -7 7 -7 0 -10 -3 -7 -7z"/>
<path d="M2145 3580 c22 -4 52 -10 68 -15 16 -4 27 -3 27 3 0 11 -59 22 -105 21 -26 -1 -25 -2 10 -9z"/>
<path d="M2115 3549 c22 -4 51 -8 65 -7 16 0 11 3 -15 9 -22 4 -51 8 -65 7 -16 0 -11 -3 15 -9z"/>
<path d="M2025 3510 c17 -4 44 -8 60 -8 25 0 24 2 -10 9 -51 10 -92 10 -50 -1z"/>
<path d="M2128 3493 c6 -2 18 -2 25 0 6 3 1 5 -13 5 -14 0 -19 -2 -12 -5z"/>
<path d="M1955 3482 c6 -5 28 -12 50 -16 48 -8 27 8 -25 19 -23 5 -32 4 -25 -3z"/>
<path d="M2053 3463 c4 -3 10 -3 14 0 3 4 0 7 -7 7 -7 0 -10 -3 -7 -7z"/>
<path d="M2093 3453 c4 -3 10 -3 14 0 3 4 0 7 -7 7 -7 0 -10 -3 -7 -7z"/>
<path d="M1935 3430 c17 -4 44 -8 60 -8 25 0 24 2 -10 9 -51 10 -92 10 -50 -1z"/>
<path d="M1876 3401 c5 -5 27 -12 49 -15 l40 -6 -45 15 c-53 17 -57 18 -44 6z"/>
<path d="M1978 3373 c6 -2 18 -2 25 0 6 3 1 5 -13 5 -14 0 -19 -2 -12 -5z"/>
<path d="M1875 3330 c17 -4 41 -8 55 -8 l25 0 -25 8 c-14 4 -38 8 -55 8 l-30 0 30 -8z"/>
<path d="M1810 3270 c0 -5 8 -10 19 -10 10 0 34 -2 52 -5 28 -4 26 -3 -11 10 -54 18 -60 18 -60 5z"/>
<path d="M1735 3230 c3 -5 14 -10 23 -10 15 0 15 2 2 10 -20 13 -33 13 -25 0z"/>
<path d="M1788 3213 c6 -2 18 -2 25 0 6 3 1 5 -13 5 -14 0 -19 -2 -12 -5z"/>
<path d="M1843 3203 c9 -2 23 -2 30 0 6 3 -1 5 -18 5 -16 0 -22 -2 -12 -5z"/>
<path d="M1890 3196 c0 -2 9 -6 20 -9 11 -3 18 -1 14 4 -5 9 -34 13 -34 5z"/>
<path d="M1755 3150 c42 -18 127 -41 133 -36 2 3 -1 7 -9 10 -8 2 -37 11 -66 20 -54 17 -92 21 -58 6z"/>
<path d="M1749 3085 c37 -17 79 -22 51 -6 -8 5 -31 12 -50 15 l-35 7 34 -16z"/>
<path d="M1855 3060 c3 -5 8 -10 11 -10 3 0 2 5 -1 10 -3 6 -8 10 -11 10 -3 0 -2 -4 1 -10z"/>
<path d="M1678 3043 c7 -3 16 -2 19 1 4 3 -2 6 -13 5 -11 0 -14 -3 -6 -6z"/>
<path d="M1750 3021 c8 -5 31 -12 50 -15 l35 -7 -34 16 c-37 17 -79 22 -51 6z"/>
<path d="M1673 2963 c4 -3 10 -3 14 0 3 4 0 7 -7 7 -7 0 -10 -3 -7 -7z"/>
<path d="M1705 2950 c3 -5 16 -10 28 -10 18 0 19 2 7 10 -20 13 -43 13 -35 0z"/>
<path d="M1790 2923 c8 -3 24 -10 35 -15 20 -9 20 -9 1 6 -11 9 -27 16 -35 15 -14 0 -14 -1 -1 -6z"/>
<path d="M1670 2910 c8 -5 22 -10 30 -10 13 0 13 1 0 10 -8 5 -22 10 -30 10 -13 0 -13 -1 0 -10z"/>
<path d="M1745 2885 c17 -8 37 -14 45 -14 8 0 -1 7 -20 14 -46 18 -64 17 -25 0z"/>
<path d="M1660 2843 c8 -3 35 -14 58 -25 24 -11 46 -17 48 -15 6 6 -91 47 -108 46 -9 0 -8 -2 2 -6z"/>
<path d="M1633 2793 c4 -3 10 -3 14 0 3 4 0 7 -7 7 -7 0 -10 -3 -7 -7z"/>
<path d="M1783 2793 c4 -3 10 -3 14 0 3 4 0 7 -7 7 -7 0 -10 -3 -7 -7z"/>
<path d="M1666 2781 c5 -5 27 -14 49 -21 22 -7 46 -17 53 -23 7 -5 15 -7 19 -4 3 4 -16 16 -43 28 -55 23 -92 33 -78 20z"/>
<path d="M1650 2725 c0 -7 106 -55 118 -55 4 1 -6 8 -22 17 -44 24 -96 44 -96 38z"/>
<path d="M1631 2646 c6 -5 151 -56 158 -56 3 1 -7 8 -22 16 -40 22 -153 55 -136 40z"/>
<path d="M1663 2583 c4 -3 10 -3 14 0 3 4 0 7 -7 7 -7 0 -10 -3 -7 -7z"/>
<path d="M1715 2565 c41 -19 67 -19 31 0 -15 8 -36 15 -45 14 -9 0 -3 -6 14 -14z"/>
 <path d="M1705 2520 c3 -5 14 -10 23 -10 15 0 15 2 2 10 -20 13 -33 13 -25 0z"/> 
 <path d="M1736 2441 c23 -10 57 -22 75 -25 20 -4 6 4 -31 19 -76 29 -103 33 -44 6z"/> 
 <path d="M1780 2360 c8 -5 24 -10 35 -10 17 0 17 2 5 10 -8 5 -24 10 -35 10 -17 0 -17 -2 -5 -10z"/> 
 <path d="M1843 2343 c4 -3 10 -3 14 0 3 4 0 7 -7 7 -7 0 -10 -3 -7 -7z"/> 
 <path d="M1820 2297 c0 -3 15 -10 32 -16 18 -6 28 -7 23 -2 -12 10 -55 25 -55 18z"/> 
 <path d="M1870 2210 c20 -13 43 -13 35 0 -3 6 -16 10 -28 10 -18 0 -19 -2 -7 -10z"/> 
 <path d="M2440 3576 c0 -2 7 -7 16 -10 8 -3 12 -2 9 4 -6 10 -25 14 -25 6z"/> 
 <path d="M2395 3540 c27 -12 43 -12 25 0 -8 5 -22 9 -30 9 -10 0 -8 -3 5 -9z"/> 
 <path d="M2350 3510 c8 -5 20 -10 25 -10 6 0 3 5 -5 10 -8 5 -19 10 -25 10 -5 0 -3 -5 5 -10z"/> 
 <path d="M2294 3475 c11 -8 27 -15 35 -15 9 0 3 7 -13 15 -36 19 -47 19 -22 0z"/> 
 <path d="M2250 3440 c20 -13 43 -13 35 0 -3 6 -16 10 -28 10 -18 0 -19 -2 -7 -10z"/>
 <path d="M2329 3423 c-13 -16 -12 -17 4 -4 9 7 17 15 17 17 0 8 -8 3 -21 -13z"/> 
 <path d="M2215 3400 c3 -5 11 -10 16 -10 6 0 7 5 4 10 -3 6 -11 10 -16 10 -6 0 -7 -4 -4 -10z"/>
 <path d="M2284 3378 c-4 -7 -3 -8 4 -4 12 7 16 16 8 16 -3 0 -8 -5 -12 -12z"/> 
 <path d="M2153 3353 c4 -3 10 -3 14 0 3 4 0 7 -7 7 -7 0 -10 -3 -7 -7z"/> 
 <path d="M2183 3343 c4 -3 10 -3 14 0 3 4 0 7 -7 7 -7 0 -10 -3 -7 -7z"/> 
 <path d="M2187 3268 c-50 -71 -121 -197 -115 -204 3 -2 20 24 37 58 18 35 55 96 82 136 60 88 57 96 -4 10z"/>
 <path d="M2123 3303 c4 -3 10 -3 14 0 3 4 0 7 -7 7 -7 0 -10 -3 -7 -7z"/>
 <path d="M2153 3293 c4 -3 10 -3 14 0 3 4 0 7 -7 7 -7 0 -10 -3 -7 -7z"/> 
 <path d="M2090 3236 c0 -2 7 -6 15 -10 8 -3 15 -1 15 4 0 6 -7 10 -15 10 -8 0 -15 -2 -15 -4z"/> 
 <path d="M2050 3190 c20 -13 33 -13 25 0 -3 6 -14 10 -23 10 -15 0 -15 -2 -2 -10z"/> 
 <path d="M2028 3133 c7 -3 16 -2 19 1 4 3 -2 6 -13 5 -11 0 -14 -3 -6 -6z"/> 
 <path d="M2036 2983 c-35 -93 -56 -186 -61 -263 -3 -57 -1 -52 15 40 17 100 47 209 72 257 6 13 9 25 6 29 -3 3 -17 -25 -32 -63z"/> 
 <path d="M1975 3020 c3 -5 13 -10 21 -10 8 0 12 5 9 10 -3 6 -13 10 -21 10 -8 0 -12 -4 -9 -10z"/> 
 <path d="M1960 2957 c14 -8 27 -12 30 -10 7 6 -23 23 -40 23 -8 0 -4 -6 10 -13z"/> 
 <path d="M1950 2890 c8 -5 22 -9 30 -9 10 0 8 3 -5 9 -27 12 -43 12 -25 0z"/> 
 <path d="M1915 2710 c27 -12 43 -12 25 0 -8 5 -22 9 -30 9 -10 0 -8 -3 5 -9z"/> 
 <path d="M1920 2536 c0 -2 7 -7 16 -10 8 -3 12 -2 9 4 -6 10 -25 14 -25 6z"/> 
 <path d="M1972 2485 c-1 -22 5 -65 13 -95 17 -70 18 -37 1 60 -11 58 -14 66 -14 35z"/> 
 <path d="M1915 2470 c27 -12 43 -12 25 0 -8 5 -22 9 -30 9 -10 0 -8 -3 5 -9z"/> 
 <path d="M1950 2360 c20 -13 33 -13 25 0 -3 6 -14 10 -23 10 -15 0 -15 -2 -2 -10z"/> 
 <path d="M2000 2320 c0 -7 3 -10 7 -7 3 4 3 10 0 14 -4 3 -7 0 -7 -7z"/> 
 <path d="M2010 2283 c0 -4 5 -15 10 -23 8 -13 10 -13 10 2 0 9 -4 20 -10 23 -5 3 -10 3 -10 -2z"/> 
 <path d="M1973 2243 c4 -3 10 -3 14 0 3 4 0 7 -7 7 -7 0 -10 -3 -7 -7z"/> 
 <path d="M2040 2200 c0 -7 3 -10 7 -7 3 4 3 10 0 14 -4 3 -7 0 -7 -7z"/> 
 <path d="M3113 3203 c4 -3 10 -3 14 0 3 4 0 7 -7 7 -7 0 -10 -3 -7 -7z"/> 
 <path d="M2970 3190 c-17 -6 -9 -7 25 -3 28 3 52 7 54 9 8 7 -54 2 -79 -6z"/> 
 <path d="M3160 3190 c8 -5 22 -10 30 -10 13 0 13 1 0 10 -8 5 -22 10 -30 10 -13 0 -13 -1 0 -10z"/> 
 <path d="M3073 3183 c4 -3 10 -3 14 0 3 4 0 7 -7 7 -7 0 -10 -3 -7 -7z"/> 
 <path d="M2903 3173 c4 -3 10 -3 14 0 3 4 0 7 -7 7 -7 0 -10 -3 -7 -7z"/> 
 <path d="M3220 3170 c8 -5 20 -10 25 -10 6 0 3 5 -5 10 -8 5 -19 10 -25 10 -5 0 -3 -5 5 -10z"/> 
 <path d="M3280 3143 c14 -9 43 -34 65 -54 42 -40 58 -45 28 -9 -20 24 -97 80 -110 80 -4 0 4 -8 17 -17z"/> 
 <path d="M2794 3118 c-4 -7 -3 -8 4 -4 7 4 12 9 12 12 0 8 -9 4 -16 -8z"/> 
 <path d="M2750 3090 c-8 -5 -12 -12 -9 -15 4 -3 12 1 19 10 14 17 11 19 -10 5z"/> 
 <path d="M2699 3042 c-50 -56 -61 -75 -16 -28 26 27 46 50 44 52 -2 2 -15 -9 -28 -24z"/> 
 <path d="M3402 3015 c15 -38 28 -54 28 -34 0 7 -9 25 -20 39 l-21 25 13 -30z"/> 
 <path d="M3375 2980 c3 -5 8 -10 11 -10 3 0 2 5 -1 10 -3 6 -8 10 -11 10 -3 0 -2 -4 1 -10z"/> 
 <path d="M2624 2948 c-4 -7 -3 -8 4 -4 7 4 12 9 12 12 0 8 -9 4 -16 -8z"/> 
 <path d="M3438 2935 c4 -16 6 -48 6 -70 -1 -22 1 -34 3 -27 3 6 9 10 14 6 15 -9 9 39 -11 81 -16 33 -18 35 -12 10z"/> 
 <path d="M3406 2932 c-3 -5 1 -9 9 -9 8 0 12 4 9 9 -3 4 -7 8 -9 8 -2 0 -6 -4 -9 -8z"/> 
 <path d="M2600 2910 c-6 -11 -8 -20 -6 -20 3 0 10 9 16 20 6 11 8 20 6 20 -3 0 -10 -9 -16 -20z"/> 
 <path d="M3410 2895 c0 -5 5 -17 10 -25 5 -8 10 -10 10 -5 0 6 -5 17 -10 25 -5 8 -10 11 -10 5z"/> 
 <path d="M2571 2853 c-10 -26 -10 -27 4 -9 8 11 15 23 15 28 0 15 -7 8 -19 -19z"/> 
 <path d="M2541 2779 c-6 -18 -11 -39 -11 -48 1 -9 8 4 16 27 9 24 13 46 11 48 -3 3 -10 -9 -16 -27z"/> 
 <path d="M3442 2700 c0 -19 2 -27 5 -17 2 9 2 25 0 35 -3 9 -5 1 -5 -18z"/> 
 <path d="M2520 2700 c0 -7 3 -10 7 -7 3 4 3 10 0 14 -4 3 -7 0 -7 -7z"/> 
 <path d="M3417 2526 c-10 -25 -9 -38 3 -31 6 3 10 1 10 -6 0 -7 2 -10 5 -8 2 3 1 18 -3 34 -7 24 -9 26 -15 11z"/> 
 <path d="M2520 2460 c0 -7 3 -10 7 -7 3 4 3 10 0 14 -4 3 -7 0 -7 -7z"/> 
 <path d="M2531 2425 c0 -21 27 -88 28 -70 0 6 -6 28 -14 50 -8 22 -14 31 -14 20z"/> 
 <path d="M3375 2361 c-3 -6 -10 -9 -14 -6 -5 2 -22 -17 -39 -43 -55 -85 -153 -172 -235 -207 -17 -8 -26 -14 -19 -15 63 -2 308 206 285 243 -3 5 -1 7 4 4 12 -7 39 20 30 29 -3 3 -8 0 -12 -5z"/> 
 <path d="M2571 2312 c6 -18 15 -35 20 -38 5 -3 4 7 -3 23 -17 41 -30 53 -17 15z"/> 
 <path d="M2620 2230 c12 -16 24 -30 26 -30 3 0 -3 14 -13 30 -9 17 -21 30 -26 30 -5 0 1 -13 13 -30z"/> 
 <path d="M2660 2192 c0 -4 10 -13 23 -21 22 -14 22 -14 3 8 -20 22 -26 25 -26 13z"/> 
 <path d="M2710 2150 c0 -8 98 -55 104 -49 3 2 -20 16 -50 30 -30 15 -54 23 -54 19z"/> 
 <path d="M2860 2086 c39 -16 157 -21 178 -7 9 5 -17 8 -65 8 -43 0 -94 3 -113 7 l-35 6 35 -14z"/> 
 <path d="M2983 1893 c4 -3 10 -3 14 0 3 4 0 7 -7 7 -7 0 -10 -3 -7 -7z"/> 
 <path d="M1767 4049 c-9 -34 -50 -78 -107 -114 -104 -66 -192 -192 -253 -365 -29 -83 -89 -365 -98 -465 -6 -66 -4 -327 3 -375 4 -25 16 -74 26 -109 22 -78 43 -94 31 -24 -24 135 -29 233 -19 349 15 173 27 263 40 314 7 25 21 86 31 135 11 50 21 95 22 100 2 6 9 30 16 55 7 25 24 69 37 98 13 29 24 55 24 58 0 10 82 125 108 152 15 15 51 46 79 70 51 43 79 93 71 129 -3 14 -6 11 -11 -8z"/> 
 <path d="M1375 2289 c-12 -19 -7 -79 8 -103 21 -32 65 -42 86 -21 15 16 14 17 -6 11 -38 -12 -83 55 -70 104 5 21 -7 27 -18 9z"/> 
 </g> 
 </svg>
 