<svg xmlns="http://www.w3.org/2000/svg" version="1.0" preserveAspectRatio="xMidYMid meet" viewBox="6 9.38 1333.59 630.74">
<g transform="translate(0.000000,1065.000000) scale(0.100000,-0.100000)" fill="#6B6764" stroke="none">
<path d="M7471 10550 c-45 -7 -60 -15 -91 -49 -37 -40 -40 -41 -102 -41 -36 0 -69 -5 -76 -12 -7 -7 -12 -32 -12 -57 0 -68 -8 -74 -100 -82 -83 -7 -164 -20 -280 -44 -36 -8 -80 -17 -97 -20 -18 -4 -35 -11 -38 -16 -4 -5 -13 -9 -21 -9 -52 0 -201 -94 -281 -178 -102 -106 -143 -172 -297 -477 -56 -110 -111 -214 -122 -230 -11 -17 -24 -37 -27 -45 -15 -35 -104 -151 -173 -227 -159 -175 -398 -314 -619 -361 -111 -23 -247 -43 -365 -52 -306 -25 -369 -31 -426 -40 -33 -6 -89 -10 -124 -10 -58 0 -228 -16 -425 -41 -44 -5 -145 -14 -225 -19 -80 -5 -152 -11 -160 -14 -19 -7 -299 -37 -400 -42 -41 -3 -79 -9 -84 -14 -22 -22 46 -27 249 -19 394 17 652 -16 801 -101 57 -33 82 -62 108 -124 15 -36 18 -38 48 -32 18 4 49 9 68 12 51 7 211 44 238 55 13 5 40 9 61 9 21 0 61 6 87 14 72 21 141 36 212 46 35 5 67 12 72 15 13 8 148 34 233 45 38 5 83 13 100 19 18 5 55 12 82 16 28 4 88 25 134 47 66 32 102 58 161 117 66 66 189 217 201 246 2 6 29 48 60 95 31 47 64 101 75 120 10 19 31 52 47 74 15 21 27 44 27 49 0 6 7 18 15 27 8 9 25 35 37 57 64 116 118 192 188 263 75 77 206 171 285 204 22 10 54 23 70 31 40 17 136 42 209 55 85 14 2802 14 2882 -1 287 -52 561 -264 679 -525 14 -33 30 -66 34 -74 5 -9 12 -30 15 -48 4 -17 12 -34 17 -37 5 -4 9 -15 9 -27 0 -20 17 -65 46 -121 8 -16 14 -35 14 -43 0 -7 14 -42 30 -76 17 -34 30 -67 30 -74 0 -7 6 -19 13 -26 6 -7 26 -40 42 -73 36 -71 124 -183 191 -244 67 -61 208 -154 274 -182 30 -12 64 -29 75 -36 11 -7 29 -13 40 -13 12 0 25 -4 30 -9 6 -4 44 -18 85 -31 41 -12 82 -25 90 -29 8 -4 49 -18 90 -30 41 -13 92 -29 113 -37 20 -8 46 -14 57 -14 11 0 34 -6 52 -14 18 -8 49 -21 70 -30 20 -9 43 -16 53 -16 9 0 56 -13 105 -30 49 -16 97 -30 107 -30 11 0 23 -4 28 -9 6 -5 46 -19 90 -31 44 -12 95 -28 113 -36 18 -8 40 -14 50 -14 9 0 49 -12 87 -26 39 -14 79 -28 90 -31 164 -43 369 -210 497 -405 54 -82 147 -256 183 -343 9 -22 23 -55 31 -73 8 -18 14 -38 14 -45 0 -7 6 -23 13 -37 22 -41 89 -260 108 -347 6 -29 15 -55 20 -59 5 -3 9 -24 9 -47 0 -23 4 -48 9 -55 14 -23 23 34 12 76 -6 20 -12 62 -15 92 -4 30 -13 87 -21 125 -7 39 -19 95 -24 125 -6 30 -18 84 -26 120 -9 36 -19 83 -24 105 -18 93 -99 309 -158 425 -86 168 -236 345 -376 443 -38 26 -70 47 -72 47 -3 0 -27 13 -53 30 -27 16 -56 30 -65 30 -8 0 -28 6 -44 14 -38 19 -71 33 -118 50 -22 8 -78 28 -125 45 -47 18 -112 41 -145 52 -33 11 -67 24 -75 28 -8 4 -48 18 -89 31 -40 12 -85 29 -100 36 -14 8 -37 14 -51 14 -15 0 -30 4 -35 9 -6 6 -28 14 -50 20 -102 26 -131 34 -145 40 -8 4 -53 18 -100 31 -47 12 -99 29 -117 36 -17 8 -38 14 -46 14 -21 0 -159 55 -256 104 -252 123 -393 272 -500 526 -59 139 -86 196 -230 490 -89 182 -172 334 -191 350 -3 3 -17 21 -30 40 -142 206 -426 350 -689 350 -74 0 -84 2 -106 25 -14 13 -25 36 -25 50 0 34 -22 86 -45 105 -9 8 -48 17 -85 21 -50 4 -72 11 -89 28 -46 46 -37 46 -811 47 -404 1 -759 -2 -789 -6z"/>
<path d="M11115 9021 c-117 -9 -222 -47 -261 -94 -14 -16 -23 -31 -20 -34 2 -2 21 3 42 12 136 59 311 77 579 59 191 -13 310 -29 440 -59 39 -9 95 -23 126 -30 139 -31 338 -104 473 -171 121 -61 189 -108 264 -181 44 -43 65 -58 69 -48 15 41 -110 173 -222 235 -22 12 -71 39 -110 60 -38 21 -77 39 -85 39 -8 1 -37 12 -65 25 -44 22 -239 85 -305 100 -14 3 -74 16 -135 30 -210 46 -286 55 -500 60 -115 2 -246 1 -290 -3z"/>
<path d="M11055 8864 c-50 -11 -138 -36 -170 -50 -41 -17 -38 -31 11 -69 33 -26 34 -26 93 -10 79 20 382 20 523 0 174 -25 291 -46 342 -61 26 -8 58 -14 69 -14 12 0 39 -6 62 -14 22 -8 67 -22 100 -31 33 -10 94 -31 136 -46 42 -16 79 -29 82 -29 4 0 47 -20 96 -44 130 -64 249 -145 308 -210 l52 -56 17 35 c9 20 17 47 17 60 0 50 -108 158 -230 232 -62 38 -199 103 -216 103 -7 0 -17 4 -22 9 -11 11 -168 67 -225 81 -19 5 -66 18 -105 30 -38 11 -99 25 -135 30 -36 5 -101 16 -145 25 -44 8 -111 20 -150 25 -68 9 -470 12 -510 4z"/>
<path d="M7785 8640 c-66 -4 -203 -8 -305 -9 -102 -1 -239 -6 -305 -12 -66 -5 -172 -14 -235 -19 -63 -5 -151 -19 -195 -30 -44 -12 -100 -25 -125 -30 -25 -5 -74 -20 -109 -34 -36 -14 -69 -26 -75 -26 -10 0 -130 -54 -156 -71 -8 -5 -26 -15 -40 -21 -45 -22 -139 -98 -167 -136 -16 -20 -37 -48 -49 -62 -41 -49 -159 -185 -174 -201 -17 -18 -39 -44 -95 -114 -22 -27 -52 -61 -66 -75 -14 -14 -40 -45 -59 -70 -18 -25 -38 -50 -44 -55 -18 -17 -76 -93 -76 -100 0 -4 -12 -24 -27 -44 -31 -40 -48 -67 -63 -96 -6 -11 -19 -33 -30 -50 -11 -16 -25 -41 -30 -55 -6 -13 -22 -47 -36 -74 -17 -34 -22 -52 -15 -59 8 -8 13 -1 17 20 3 18 12 34 20 37 8 3 14 14 14 25 0 11 5 23 11 26 5 4 15 17 20 28 5 12 18 36 29 52 11 17 23 37 27 45 3 8 19 31 35 51 15 20 28 40 28 43 0 8 138 192 194 259 46 55 333 341 384 382 31 26 35 27 115 20 45 -3 96 -11 112 -16 17 -5 68 -13 115 -19 47 -5 107 -14 134 -20 27 -5 72 -12 100 -14 66 -5 223 -24 309 -37 38 -6 133 -15 210 -19 78 -5 203 -13 277 -19 339 -27 458 -31 800 -31 340 0 467 5 760 31 63 6 185 14 270 19 85 5 162 11 170 14 14 5 152 24 345 47 44 5 87 12 95 15 8 3 58 12 110 21 178 27 201 31 250 44 43 11 57 10 104 -5 150 -47 274 -129 435 -288 69 -68 215 -240 261 -308 19 -28 40 -57 46 -64 6 -6 18 -26 27 -42 9 -17 23 -36 31 -43 28 -23 19 13 -14 62 -16 25 -30 48 -30 52 0 4 -20 34 -45 66 -25 33 -45 62 -45 65 0 8 -114 138 -162 184 -85 82 -126 118 -173 150 -27 19 -54 41 -58 48 -4 6 -12 12 -18 12 -5 0 -15 4 -22 10 -58 47 -127 99 -152 114 -16 11 -50 38 -75 61 -57 52 -174 129 -237 156 -26 11 -57 24 -68 29 -28 13 -163 60 -205 72 -19 5 -71 21 -115 34 -125 37 -244 55 -445 65 -232 13 -1354 19 -1515 9z"/>
<path d="M1180 8234 c-52 -18 -104 -38 -115 -43 -123 -58 -192 -95 -215 -116 -9 -8 -20 -15 -24 -15 -21 0 -172 -141 -231 -215 -22 -27 -46 -54 -52 -58 -7 -4 -13 -12 -13 -16 0 -5 -17 -35 -39 -67 -71 -108 -119 -208 -200 -420 -17 -44 -31 -89 -31 -98 0 -10 -12 -52 -26 -93 -14 -42 -30 -99 -35 -127 -4 -28 -15 -85 -24 -126 -15 -71 -29 -149 -54 -300 -26 -165 -34 -222 -42 -325 -5 -60 -11 -135 -14 -165 l-5 -55 21 45 c12 25 25 74 29 110 5 36 14 110 21 165 17 140 46 245 102 365 16 36 34 75 40 87 7 16 6 27 -3 38 -7 8 -10 27 -7 42 12 63 60 240 73 270 8 17 14 37 14 45 0 8 4 18 8 24 4 5 18 36 31 69 25 65 107 235 151 313 5 9 22 39 37 66 59 103 154 243 200 291 89 95 240 183 346 201 20 3 40 10 43 15 3 5 21 9 39 9 28 0 45 10 85 48 27 26 50 53 50 60 0 20 -60 12 -160 -24z"/>
<path d="M2370 8256 c-5 -4 -126 -19 -390 -47 -46 -4 -96 -13 -110 -18 -14 -5 -45 -12 -69 -14 -24 -3 -48 -10 -53 -15 -5 -5 130 -8 344 -8 252 1 367 -3 403 -12 28 -7 97 -23 155 -36 104 -23 156 -39 195 -59 143 -73 195 -115 248 -195 104 -161 102 -263 -8 -354 -42 -36 -140 -86 -190 -99 -16 -4 -43 -12 -60 -18 -158 -56 -352 -79 -660 -79 -285 0 -390 17 -535 86 -51 25 -77 46 -116 94 -31 40 -34 49 -34 112 0 59 5 78 31 125 17 31 49 78 71 104 31 37 38 51 29 60 -16 16 -178 12 -256 -7 -146 -34 -204 -47 -255 -57 -88 -17 -222 -118 -353 -267 -34 -37 -140 -191 -175 -251 -27 -46 -77 -140 -130 -241 -30 -58 -58 -109 -62 -115 -13 -18 -20 -45 -11 -45 4 0 28 16 53 35 43 34 173 105 191 105 5 0 23 7 40 15 71 33 230 62 432 81 211 19 483 22 1045 10 430 -9 629 -2 760 25 25 5 72 14 105 19 33 5 80 16 105 25 178 62 264 128 324 249 l37 74 -3 154 c-3 145 -4 156 -32 213 -53 108 -133 183 -261 244 -38 19 -78 38 -89 43 -20 10 -68 21 -211 45 -87 14 -494 30 -505 19z"/>
<path d="M1626 8141 c-16 -6 -17 -8 -4 -13 20 -8 97 2 104 13 6 11 -73 11 -100 0z"/>
<path d="M7875 7910 c-143 -9 -350 -37 -376 -50 -10 -6 -32 -10 -49 -10 -35 0 -186 -36 -212 -50 -10 -6 -27 -10 -37 -10 -11 0 -55 -13 -98 -30 -42 -16 -86 -30 -96 -30 -11 0 -31 -6 -45 -13 -15 -8 -42 -21 -60 -30 -19 -9 -39 -17 -45 -17 -24 0 -368 -169 -398 -196 -8 -8 -20 -14 -25 -14 -26 0 -347 -221 -489 -338 -174 -142 -494 -468 -598 -609 -12 -17 -36 -48 -54 -69 -60 -74 -224 -315 -285 -419 -95 -163 -192 -354 -266 -525 -8 -19 -21 -47 -29 -62 -7 -14 -13 -35 -13 -45 0 -10 -4 -23 -9 -29 -10 -9 -35 -73 -51 -129 -8 -28 -47 -149 -72 -225 -6 -19 -15 -53 -19 -75 -3 -22 -18 -84 -33 -138 -14 -53 -26 -114 -26 -134 0 -20 -7 -71 -16 -113 -16 -81 -16 -149 1 -153 18 -4 38 57 47 143 15 145 30 244 43 280 7 19 21 62 30 95 9 33 23 74 31 92 8 17 14 36 14 42 0 11 24 69 46 113 8 14 14 31 14 37 0 13 31 81 124 271 74 151 153 292 237 418 16 23 29 45 29 48 0 2 34 50 75 105 41 55 75 102 75 105 0 5 18 27 151 184 129 153 411 424 549 530 25 19 50 39 57 45 6 5 33 25 60 43 26 19 75 53 108 76 33 23 101 66 150 96 50 30 92 57 93 62 2 4 12 8 22 8 10 0 25 6 32 13 19 18 282 146 383 186 121 48 184 71 194 71 7 0 27 6 44 14 35 15 109 39 172 54 22 5 72 19 110 30 39 11 90 23 115 26 25 4 59 11 75 16 17 5 98 19 180 30 83 12 177 25 210 30 33 6 218 10 410 10 298 0 371 -3 490 -20 251 -36 369 -57 469 -86 26 -8 57 -14 67 -14 10 0 20 -4 23 -9 4 -5 24 -12 46 -16 21 -4 70 -18 107 -31 37 -14 82 -29 98 -34 148 -41 514 -225 715 -358 62 -42 282 -205 320 -238 14 -12 45 -39 70 -61 92 -79 194 -180 288 -287 53 -60 104 -117 113 -127 17 -17 132 -169 159 -209 8 -13 24 -35 35 -49 12 -14 38 -53 59 -86 22 -33 52 -79 68 -103 15 -23 28 -45 28 -48 0 -3 20 -38 44 -77 82 -136 219 -428 291 -622 15 -38 33 -86 40 -105 8 -19 26 -73 39 -120 14 -47 32 -107 41 -135 9 -27 20 -70 24 -95 5 -25 13 -65 20 -90 6 -25 13 -58 16 -73 3 -15 10 -25 15 -22 17 10 10 115 -16 250 -14 72 -29 155 -33 185 -5 30 -13 66 -19 80 -15 37 -42 135 -42 151 0 13 -34 108 -51 141 -5 10 -9 24 -9 33 0 8 -6 29 -14 47 -8 18 -29 69 -46 113 -46 115 -119 272 -161 345 -5 8 -15 26 -21 40 -7 14 -36 66 -66 115 -29 50 -56 95 -60 102 -23 39 -139 202 -189 268 -5 6 -24 30 -43 55 -154 202 -496 533 -680 660 -19 13 -37 27 -40 30 -5 6 -202 135 -301 198 -28 17 -57 32 -65 32 -7 0 -16 5 -19 10 -8 14 -330 170 -349 170 -8 0 -17 4 -20 9 -3 5 -29 16 -58 26 -29 9 -71 25 -93 35 -22 9 -65 25 -95 35 -30 9 -69 23 -87 31 -17 8 -41 14 -54 14 -13 0 -41 6 -64 14 -82 28 -116 37 -162 46 -27 5 -68 13 -93 20 -90 22 -144 33 -199 40 -31 4 -103 15 -161 23 -258 38 -602 53 -855 37z"/>
<path d="M11214 7364 c3 -9 6 -18 6 -20 0 -3 4 -3 10 1 11 7 2 35 -12 35 -6 0 -7 -7 -4 -16z"/>
<path d="M7900 7090 c-158 -19 -243 -31 -251 -36 -5 -3 -37 -10 -71 -15 -35 -5 -95 -21 -135 -34 -39 -14 -77 -25 -84 -25 -12 0 -133 -45 -213 -78 -72 -31 -331 -163 -347 -178 -8 -8 -21 -14 -27 -14 -6 0 -17 -6 -24 -13 -7 -7 -31 -24 -53 -37 -22 -13 -42 -27 -45 -30 -3 -4 -30 -24 -60 -45 -30 -21 -57 -41 -60 -44 -3 -4 -36 -31 -75 -60 -95 -73 -318 -295 -413 -410 -101 -122 -101 -123 -142 -178 -19 -27 -37 -50 -40 -53 -4 -3 -17 -23 -30 -45 -13 -22 -30 -46 -37 -53 -7 -7 -13 -17 -13 -22 0 -4 -18 -34 -39 -66 -50 -76 -68 -109 -202 -377 -16 -32 -29 -63 -29 -69 0 -6 -12 -36 -27 -67 -14 -31 -30 -69 -34 -86 -4 -16 -19 -61 -33 -99 -14 -38 -26 -77 -26 -86 0 -10 -7 -31 -15 -46 -8 -16 -15 -41 -15 -55 0 -15 -7 -43 -15 -62 -8 -20 -15 -53 -15 -74 0 -21 -7 -56 -15 -78 -15 -44 -20 -195 -6 -195 11 0 18 29 26 110 9 93 25 192 36 212 5 10 14 39 19 65 32 139 235 585 311 682 11 13 19 27 19 32 0 25 195 288 327 440 123 142 337 343 447 419 11 8 53 37 92 65 38 27 79 55 90 62 109 67 165 99 259 146 158 80 239 117 256 117 8 0 25 6 39 13 14 7 50 21 80 31 30 10 73 24 95 32 22 7 78 22 125 34 47 11 101 25 120 30 64 16 214 39 366 55 187 20 562 16 729 -9 193 -28 430 -80 515 -114 14 -5 50 -18 80 -27 30 -10 64 -24 75 -32 11 -7 26 -13 35 -13 8 0 42 -14 74 -30 32 -17 62 -30 66 -30 10 0 234 -122 240 -130 3 -4 19 -14 37 -23 17 -9 37 -22 45 -30 7 -7 31 -24 53 -37 22 -14 47 -30 55 -37 8 -6 49 -38 90 -71 42 -33 115 -96 162 -141 112 -103 209 -212 351 -391 31 -39 127 -186 186 -285 77 -128 221 -417 221 -442 0 -6 13 -41 29 -79 38 -94 49 -125 76 -226 13 -48 28 -96 34 -107 6 -11 11 -32 11 -48 0 -38 10 -73 21 -73 35 0 -27 306 -117 575 -49 147 -59 174 -89 235 -15 30 -41 84 -58 120 -42 85 -158 284 -169 288 -4 2 -8 10 -8 17 0 8 -6 20 -13 27 -8 7 -35 45 -62 83 -124 178 -343 408 -534 561 -98 79 -291 214 -305 214 -4 0 -25 12 -49 27 -65 41 -203 110 -297 150 -47 19 -116 48 -154 64 -38 16 -79 29 -91 29 -12 0 -25 3 -28 6 -10 11 -108 43 -157 53 -25 5 -81 19 -125 31 -78 20 -114 27 -280 50 -44 6 -111 15 -150 21 -89 13 -529 20 -615 9z"/>
<path d="M4975 6790 c-49 -4 -157 -13 -240 -19 -82 -6 -204 -20 -270 -32 -66 -11 -142 -24 -170 -29 -27 -4 -84 -18 -125 -30 -41 -11 -94 -25 -117 -30 -23 -5 -50 -13 -60 -19 -10 -5 -38 -17 -63 -26 -25 -9 -58 -23 -75 -30 -16 -8 -48 -22 -70 -31 -22 -10 -91 -46 -153 -81 -62 -35 -118 -63 -125 -63 -7 0 -37 25 -67 56 -30 30 -75 70 -100 89 -60 44 -180 105 -207 105 -12 0 -24 4 -27 9 -4 5 -25 12 -49 16 -23 4 -51 12 -61 17 -21 11 -145 20 -552 39 -214 10 -308 10 -450 1 -219 -15 -361 -29 -373 -36 -9 -6 -106 -28 -206 -46 -27 -5 -59 -14 -70 -19 -11 -5 -33 -12 -49 -16 -21 -4 -26 -9 -18 -17 8 -8 39 -7 114 3 72 10 202 14 433 14 332 -1 439 -9 670 -49 44 -8 112 -20 150 -26 39 -6 100 -17 136 -25 37 -8 74 -15 83 -15 27 0 228 -70 291 -102 150 -75 202 -162 142 -235 -30 -35 -85 -147 -97 -193 -8 -33 -17 -60 -45 -140 -33 -89 -38 -173 -30 -476 12 -475 12 -827 -1 -831 -6 -2 -31 12 -55 31 -70 55 -169 111 -229 129 -30 8 -73 21 -95 27 -22 7 -115 14 -207 17 -233 8 -370 -12 -200 -28 187 -18 343 -45 427 -73 22 -7 58 -19 80 -26 71 -22 188 -84 227 -121 l39 -36 -3 -91 c-3 -83 3 -114 18 -100 3 4 9 44 14 90 14 139 30 260 42 313 6 27 15 92 19 145 9 100 31 287 48 405 6 39 11 99 11 134 0 102 56 508 77 561 38 95 112 206 191 288 128 130 388 285 612 363 36 12 70 25 75 29 6 4 39 15 75 24 36 10 85 24 110 31 161 47 381 83 638 104 49 4 76 11 82 21 24 37 1 42 -145 30z"/>
<path d="M7995 5830 c-22 -5 -62 -13 -90 -19 -85 -16 -180 -42 -189 -52 -6 -5 -16 -9 -24 -9 -14 0 -82 -28 -152 -64 -88 -44 -135 -70 -140 -76 -3 -4 -31 -23 -63 -44 -70 -46 -224 -182 -290 -257 -64 -71 -178 -224 -202 -271 -11 -21 -23 -38 -27 -38 -3 0 -10 -10 -13 -22 -4 -11 -20 -43 -36 -70 -16 -27 -29 -56 -29 -64 0 -9 -7 -22 -15 -30 -8 -9 -15 -24 -15 -35 0 -10 -4 -19 -10 -19 -5 0 -10 -12 -9 -27 l0 -28 12 25 c6 14 17 31 24 38 7 7 13 22 13 33 0 10 3 19 8 19 4 0 18 21 32 48 126 240 393 515 633 651 77 43 217 111 230 111 6 0 26 7 42 16 41 21 197 62 330 85 180 33 562 19 690 -25 22 -7 62 -19 89 -25 26 -6 68 -20 92 -31 23 -11 48 -20 55 -20 6 0 52 -22 103 -48 124 -66 135 -73 181 -107 22 -16 45 -33 50 -37 190 -140 382 -375 492 -603 19 -38 40 -83 48 -98 8 -16 15 -34 15 -42 0 -7 7 -19 16 -26 15 -12 16 -10 11 21 -6 44 -30 107 -45 122 -7 7 -12 20 -12 30 0 9 -13 39 -28 65 -16 26 -31 56 -35 66 -3 9 -36 62 -72 116 -103 156 -203 264 -368 397 -29 24 -110 78 -147 98 -19 11 -41 26 -48 33 -7 7 -22 13 -32 13 -10 0 -21 4 -25 9 -8 15 -120 65 -205 93 -93 31 -147 46 -220 61 -41 8 -102 20 -135 27 -73 15 -434 22 -490 10z"/>
<path d="M9860 4628 c0 -27 16 -55 25 -46 9 9 -5 68 -16 68 -5 0 -9 -10 -9 -22z"/>
</g>
</svg>