<svg version="1.0" xmlns="http://www.w3.org/2000/svg"
 width="500.000000pt" height="335.000000pt" viewBox="0 0 500.000000 335.000000"
 preserveAspectRatio="xMidYMid meet">
<metadata>
Created by Nikhil 1.0, written by Nikhil Jatale 2021-2031
</metadata>
<g transform="translate(0.000000,335.000000) scale(0.050000,-0.050000)"
fill="#000000" stroke="none">
<path d="M4474 6678 c-191 -28 -282 -82 -511 -304 -308 -298 -415 -355 -672
-354 l-101 1 80 45 c214 121 76 214 -315 214 -443 0 -591 -106 -336 -240 l71
-38 -86 -1 c-230 -2 -349 -127 -444 -464 -86 -304 -94 -1708 -12 -1905 41 -98
43 -92 -36 -92 -404 0 -1053 -290 -1232 -550 -188 -274 -63 -467 530 -816 432
-254 452 -272 351 -313 -303 -126 -318 -381 -23 -381 279 0 383 122 270 315
-60 102 -59 102 55 128 48 10 102 23 121 29 27 8 35 -6 40 -66 8 -106 52 -97
97 20 71 190 119 203 119 33 0 -141 31 -168 119 -103 56 42 57 42 92 3 59 -65
306 -25 358 59 28 45 51 19 51 -58 0 -119 51 -105 89 23 56 189 118 247 141
132 7 -36 17 -81 23 -100 11 -38 69 -46 125 -16 29 15 41 9 59 -30 33 -73 128
-67 186 11 l44 59 22 -44 c32 -65 113 -67 186 -6 72 60 85 63 85 15 0 -108
154 -169 224 -89 47 53 100 165 78 165 -11 0 -25 -18 -32 -39 -7 -22 -40 -63
-75 -92 l-63 -53 -35 43 c-68 83 -67 169 2 344 135 343 147 747 21 747 -99 0
-141 -187 -142 -630 0 -307 -1 -310 -53 -365 -89 -93 -154 -48 -132 90 11 67
-17 118 -42 77 -6 -11 -42 -14 -80 -8 -60 9 -79 0 -166 -82 -132 -123 -185
-105 -185 60 0 101 -113 77 -174 -38 -56 -103 -55 -21 3 351 73 468 66 695
-21 662 -62 -24 -75 -118 -87 -595 l-11 -478 -110 -56 c-139 -72 -213 -75
-243 -9 -33 72 -9 111 67 111 83 1 125 27 110 68 -34 87 -202 24 -253 -95 -73
-171 -115 -166 -125 17 -7 123 -80 152 -152 61 -48 -61 -56 -63 -70 -11 -14
56 -54 50 -54 -7 0 -41 -12 -49 -85 -59 -47 -7 -124 -18 -171 -26 -70 -11 -94
-6 -130 27 -24 22 -187 124 -361 227 -650 385 -738 559 -436 858 205 204 571
362 986 427 l173 27 107 -67 c95 -58 123 -66 249 -67 235 0 259 -157 63 -406
-61 -77 -64 -104 -11 -84 91 35 186 215 186 352 l0 134 493 -11 c271 -6 510
-3 530 6 56 25 -158 41 -652 47 -375 4 -435 9 -480 40 -69 49 -166 78 -318 94
-192 21 -190 12 -199 808 -11 892 28 1235 164 1437 94 140 122 148 612 166
690 26 713 34 1059 366 297 285 365 317 691 317 353 0 573 -67 660 -198 110
-169 262 -284 455 -347 91 -29 91 -28 5 -110 -161 -151 -34 -376 195 -345 162
22 235 159 154 291 -51 83 -42 93 44 57 276 -119 359 -671 297 -1992 -22 -479
-21 -471 -121 -522 -215 -110 -1240 -109 -1749 1 -615 134 -1031 602 -1030
1158 3 1047 1150 1570 1870 851 551 -549 494 -1211 -150 -1769 -134 -116 -132
-163 2 -69 809 560 746 1682 -118 2100 -1149 556 -2246 -984 -1352 -1899 322
-330 671 -451 1438 -498 65 -4 50 -10 -79 -31 -584 -93 -843 -589 -483 -921
150 -137 434 -243 564 -211 87 22 50 43 -87 51 -614 36 -776 685 -239 960 686
351 1306 -226 1103 -1027 -47 -188 -46 -187 -369 -275 -879 -241 -1389 -644
-1030 -815 l70 -33 0 -157 c0 -91 8 -156 20 -156 11 0 20 36 20 81 l0 81 95
-6 c91 -6 95 -9 105 -74 12 -84 60 -109 60 -32 0 29 -10 71 -21 93 -16 29 -15
47 2 68 13 16 18 50 11 77 -10 42 -3 49 57 61 297 55 775 442 925 747 72 148
198 210 173 84 -24 -122 113 -169 190 -65 l41 55 32 -45 c40 -56 109 -58 177
-4 38 30 53 34 53 14 0 -105 130 -131 222 -43 l59 56 30 -44 c47 -66 137 -59
192 16 l44 59 22 -44 c33 -67 119 -69 183 -4 52 52 87 43 88 -23 1 -90 155
-113 228 -34 49 52 51 53 91 17 56 -51 196 -32 315 42 142 87 127 118 -19 38
-182 -101 -289 -88 -272 33 6 38 23 48 92 57 130 18 151 99 24 99 -95 0 -136
-33 -187 -148 -137 -310 -313 -118 -184 200 135 330 146 746 21 764 -94 13
-152 -259 -148 -695 l3 -270 -54 -46 c-85 -73 -120 -53 -120 68 l0 103 -107 1
c-96 1 -114 -5 -166 -63 -247 -272 -302 -267 -293 28 l6 188 155 6 c201 7 201
41 0 48 l-155 6 7 75 c4 57 -1 75 -24 75 -21 0 -33 -24 -37 -75 -5 -68 -12
-76 -71 -81 -82 -8 -86 -44 -5 -44 l60 0 0 -141 c0 -124 -6 -147 -50 -191 -80
-80 -120 -57 -119 66 l1 102 -98 1 c-60 0 -126 -14 -171 -38 -101 -54 -151
-52 -135 6 59 205 72 284 72 425 0 474 -235 790 -633 848 -141 21 -138 21 253
30 426 11 667 73 718 186 66 144 75 1643 12 1995 -66 374 -144 467 -441 532
-294 64 -473 165 -654 364 -219 242 -510 319 -961 253z m-1202 -481 c43 -44
22 -73 -90 -123 -220 -97 -687 -16 -611 107 40 66 638 79 701 16z m2795 -237
c94 -112 80 -210 -37 -263 -167 -77 -303 133 -172 265 76 76 144 75 209 -2z
m-3500 -2494 c31 -16 53 -32 49 -37 -19 -19 -266 32 -294 62 -41 42 152 23
245 -25z m610 -806 c-30 -381 -58 -424 -46 -70 12 321 23 396 50 348 8 -16 7
-141 -4 -278z m1009 145 c23 -115 -81 -685 -125 -685 -31 0 24 654 60 723 26
48 51 34 65 -38z m3481 -127 c-4 -184 -45 -409 -95 -518 -36 -79 -30 236 10
527 34 248 90 242 85 -9z m-3941 -651 c28 -28 -91 -187 -139 -187 -51 0 -19
145 41 185 27 18 81 19 98 2z m2694 -14 c0 -50 -91 -163 -131 -163 -49 0 -48
96 3 152 39 44 128 51 128 11z m800 0 c0 -43 -88 -162 -126 -169 -45 -9 -47
89 -3 152 34 48 129 61 129 17z m-1294 -195 c-258 -468 -1041 -885 -1257 -669
-175 175 249 474 981 691 350 104 346 105 276 -22z m-3986 -37 c81 -159 31
-238 -162 -257 -237 -22 -236 151 2 294 96 58 113 54 160 -37z m3040 -751 c41
-49 -10 -90 -112 -90 -84 0 -88 2 -88 60 0 69 149 92 200 30z"/>
<path d="M4398 5390 c-340 -177 -618 -808 -439 -999 147 -156 478 -75 674 166
121 148 100 147 -55 -5 -555 -541 -885 44 -358 633 301 336 546 288 318 -61
-86 -132 -90 -198 -6 -94 240 297 160 513 -134 360z"/>
<path d="M5030 4967 c-268 -39 -730 -287 -681 -365 11 -18 32 -5 75 47 165
200 735 355 903 244 211 -137 31 -693 -224 -693 -54 0 -145 -9 -204 -20 -134
-26 -129 -55 -57 298 54 272 61 352 27 318 -5 -6 -39 -154 -73 -330 l-64 -319
-99 -36 c-163 -57 -238 -149 -185 -222 82 -111 588 64 750 259 18 21 64 33
139 35 100 4 103 5 28 12 -95 8 -101 19 -48 87 298 381 145 747 -287 685z
m110 -805 c0 -70 -438 -282 -582 -282 -119 0 -100 98 34 175 101 58 128 56
128 -6 0 -29 9 -46 20 -39 11 7 20 34 20 61 0 53 21 62 205 89 152 22 175 22
175 2z"/>
<path d="M3266 1096 c-154 -41 -175 -257 -32 -333 116 -62 286 25 286 146 0
44 -49 171 -66 171 -2 0 -31 8 -64 17 -33 9 -89 9 -124 -1z m157 -69 c43 -38
49 -143 12 -193 -73 -98 -255 -30 -255 95 0 111 159 175 243 98z"/>
<path d="M4015 1104 c-149 -18 -189 -265 -54 -335 147 -76 279 0 279 159 0
133 -77 193 -225 176z m148 -77 c90 -82 15 -247 -113 -247 -49 0 -130 92 -130
149 0 111 159 175 243 98z"/>
<path d="M2417 950 c-2 -82 -4 -160 -5 -173 -1 -13 9 -27 23 -32 17 -6 25 17
25 73 l0 82 89 0 c95 0 151 37 151 100 0 68 -56 100 -171 100 l-109 0 -3 -150z
m221 73 c28 -52 -10 -83 -102 -83 -71 0 -76 4 -76 60 0 74 141 92 178 23z"/>
<path d="M2764 932 c6 -167 46 -251 46 -97 l0 75 105 6 105 6 0 -93 c0 -65 7
-90 25 -84 40 13 46 355 6 355 -22 0 -31 -20 -31 -71 l0 -71 -105 6 c-101 6
-105 8 -105 64 0 32 -12 62 -26 67 -20 7 -24 -30 -20 -163z"/>
<path d="M3540 1081 c0 -10 29 -21 65 -25 l65 -6 0 -148 c0 -101 8 -151 25
-157 19 -6 25 33 25 153 l0 162 70 0 c39 0 70 9 70 20 0 12 -67 20 -160 20
-88 0 -160 -8 -160 -19z"/>
<path d="M4349 1051 c-143 -143 37 -384 215 -289 32 17 45 16 58 -5 11 -17 18
12 18 78 l0 105 -70 0 c-38 0 -70 -9 -70 -20 0 -11 23 -20 50 -20 66 0 65 -49
-2 -93 -134 -88 -271 108 -155 223 39 39 136 38 176 -2 17 -17 42 -28 55 -23
15 5 8 23 -20 51 -63 63 -189 60 -255 -5z"/>
<path d="M5165 931 c-46 -93 -76 -175 -65 -181 10 -6 33 16 50 50 44 86 184
82 226 -5 24 -51 64 -75 64 -40 0 38 -151 345 -170 345 -11 0 -59 -76 -105
-169z m154 -6 c1 -15 -24 -25 -59 -25 -70 0 -70 2 -28 85 l33 62 27 -48 c14
-27 27 -60 27 -74z"/>
<path d="M5484 931 c6 -170 40 -238 52 -102 6 67 9 69 98 75 208 14 182 182
-30 192 l-126 6 6 -171z m226 69 c0 -42 -11 -51 -67 -56 -96 -10 -120 4 -108
65 15 78 175 70 175 -9z"/>
<path d="M5840 920 c0 -107 8 -180 20 -180 11 0 20 41 20 90 l0 90 110 0 110
0 0 -90 c0 -49 9 -90 20 -90 12 0 20 73 20 180 0 107 -8 180 -20 180 -11 0
-20 -31 -20 -70 l0 -70 -110 0 -110 0 0 70 c0 39 -9 70 -20 70 -12 0 -20 -73
-20 -180z"/>
<path d="M6200 1085 c0 -8 32 -55 70 -103 53 -66 70 -107 70 -165 0 -42 9 -77
20 -77 11 0 20 33 20 73 0 55 21 101 81 180 55 74 71 107 50 107 -17 0 -57
-36 -89 -80 l-58 -81 -64 81 c-59 74 -100 101 -100 65z"/>
<path d="M1179 933 c-5 -4 -166 -14 -358 -21 -603 -23 -402 -34 505 -28 571 4
872 13 867 26 -6 19 -994 41 -1014 23z"/>
<path d="M6712 923 c-8 -13 -12 -23 -8 -23 3 0 393 -5 866 -11 473 -6 878 -15
900 -21 31 -8 33 -6 10 9 -68 42 -1743 86 -1768 46z"/>
</g>
</svg>
